<svg id="body_back_拷貝" data-name="body_back 拷貝" xmlns="http://www.w3.org/2000/svg" viewBox="0 0 720 1240"><g id="headWear_拷貝_4" data-name="headWear 拷貝 4"><path d="M483.19,711.13c6.94,32.44,8.34,108-3.85,144.91-1.35,4.1.44,9.2-2.2,12.47-2.11,2.62-5.44,3.52-8.57,4.26-27.4,6.49-26.66,6-54.65,7.8-9.76.63-17.3-.16-26-5-7.37-4.1-23.59-5.42-23.45-13.09a.37.37,0,0,0-.73-.1c-1,4.82-2.08,8.75-6.68,18.75-1.68,3.64-19.66,9.16-23.4,9.34q-46.74,2.25-93.54,1.24c-2.76-.05-5.73-2.2-7.93-4-2.75-2.28-3-6.48-3.83-10.13-11.44-50-10.44-93-.23-138.3,1.18-5.23,1.55-11.25,5.51-14.44,3.25-2.62,7.79-1.33,11.66-2.58,43.63-14.11,128-33,237.89-11.11" fill="#005274" stroke="#231815" stroke-miterlimit="10" stroke-width="0.25"/></g></svg>