<svg id="body_right_拷貝_2" data-name="body_right 拷貝 2" xmlns="http://www.w3.org/2000/svg" viewBox="0 0 720 1240"><path d="M382.62,1076.9a116.55,116.55,0,0,0,62-7c-.92,3.49,1.72,9.67,1.93,13.28s8.24,5.36,11.27,7.33c1.59,1,6.36.37,8.22.73,9.65,1.92,8.45-.8,18.24.17s18.31,6.6,24.32,14.4c3,3.91,4.71,8.68,6.14,13.41,3.37,11.09,5.21,24.36-2.27,33.2a27.9,27.9,0,0,1-10.08,7.08c-8.39,3.75-17.1,7.84-26.21,9.11-20.22,2.82-39.21,5.95-59.58,7.35-6.06.41-14.22-2.43-19.67-5.1-7.06-3.45-16.52-9.62-18.27-17.28s.71-14.43-.45-22.2c-.64-4.22,1.4-11.1.82-15.33-1.78-13.07.63-26.3,3-39.27" fill="#351100" stroke="#000" stroke-miterlimit="10" stroke-width="0.25"/><path d="M264.76,1079.43a116.42,116.42,0,0,0,62.41-.31c-1.28,3.38.68,9.8.5,13.41s7.63,6.22,10.43,8.5c1.47,1.19,6.29,1,8.09,1.6,9.4,2.94,8.49.1,18.13,2.12s17.5,8.51,22.64,16.91c2.58,4.21,3.75,9.13,4.68,14,2.16,11.38,2.58,24.77-5.81,32.77a27.87,27.87,0,0,1-10.78,6c-8.74,2.84-17.84,6-27,6.26-20.41.65-39.63,1.73-60,.95-6.07-.24-13.88-3.93-19-7.17-6.65-4.19-15.4-11.33-16.31-19.13s2.24-14.27,1.91-22.12c-.18-4.27,2.58-10.89,2.46-15.16-.38-13.18,3.43-26.08,7.2-38.72" fill="#351100" stroke="#000" stroke-miterlimit="10" stroke-width="0.25"/></svg>