<svg id="body_right_拷貝" data-name="body_right 拷貝" xmlns="http://www.w3.org/2000/svg" viewBox="0 0 720 1240"><path d="M296.69,1153.53c2-.07,7.06.46,19.47,0,11.5-.42,17.34-1,24.77-1.93,6.11-.72,12.4-1.69,17.62-4.94,10.92-6.82,13.81-23,7.34-34.12s-6.93-11.21-19.68-9.48l-9,1.55-9.28,1.9c-.13,0-3.39-9.64-3.42-9.78L326,1069c16.95-72.7,21.53-132.46,32-217-8.83-52.29-51.42-133.61-50.24-186.63" fill="#ffe5d9" stroke="#000" stroke-miterlimit="10" stroke-width="0.25"/><path d="M325.42,809.52C365,907.37,377.58,1007.6,381,1111.37c.33,10.29-8.51,26-2,34,2.78,3.41,20.39,4.13,32.7,4.58,2.24.09,7.72,1.06,21.38,1.52,12.67.42,19.13.18,27.35-.2,6.77-.32,13.76-.9,19.74-4.07,12.52-6.63,16.94-24.18,10.7-36.9s-6.74-12.84-20.87-11.93l-10,1-17,2c-.15,0-3-10.85-3-11a144.69,144.69,0,0,1,0-39c12-90.37-14.47-163.46-4-248C427.13,751.08,424.5,700.05,425.68,647c1-43.38,8.65-86.41,9.35-129.79a404.21,404.21,0,0,0-6.12-76.79c-3.17-17.92-8.65-38.21-23.94-48.09l-.48-.69c-3.08-2.24-2.44-7.34-5.2-10a10,10,0,0,0-3.4-1.89A227.25,227.25,0,0,0,342.13,366l-.63.52a34.69,34.69,0,0,1,1,8.58c.16,5.72-.46,10.56-3.2,15.66-2.07,3.87-5.4,6.86-7.58,10.73-4.88,8.64-7.08,18.6-12.71,26.86-11.37,16.66-14.48,35.6-20,55-29.79,104.65-25.76,212.19-23,321a.15.15,0,0,1,0,.07c-4.24,16.18,2.52,42.45,5,59,14.17,94.31-11,146.63-9,234,.21,9.23-7.92,28.78-7,38,1,10-11.08,20.46,33,18" fill="#ffe5d9" stroke="#000" stroke-miterlimit="10" stroke-width="0.25"/><path d="M451.47,390.87c3.47,0,1.81-.27,12-14,5.86-7.9,8-18,13-23,8.86-8.86,4-20,16-38,0,0,2,2-6-5-6.94-6.07-17-10-17-15,0-28.3,48.41-85.14-7-138-43.77-41.75-128.06-41.8-177.42.13-56.37,47.89-43.62,123-25,157.46,7.49,13.85,42.1,37.85,52.45,43.41,1.69.91,20.61,13.74,33,18C361.37,382.33,448.38,390.85,451.47,390.87Z" fill="#ffe5d9" stroke="#000" stroke-miterlimit="10" stroke-width="0.25"/></svg>