<svg id="body_left_拷貝" data-name="body_left 拷貝" xmlns="http://www.w3.org/2000/svg" viewBox="0 0 720 1240"><path d="M422.6,1151.65c-2-.07-7.06.46-19.47,0-11.5-.42-17.35-1.05-24.77-1.92-6.11-.72-12.4-1.69-17.63-5-10.91-6.81-13.8-23-7.33-34.12s6.93-11.2,19.68-9.48l9,1.55,9.28,1.9c.13,0,3.39-9.64,3.42-9.78l-1.48-27.73c-17-72.7-21.53-132.46-32-217,8.83-52.28,51.42-133.61,50.24-186.62" fill="#ffe5d9" stroke="#000" stroke-miterlimit="10" stroke-width="0.25"/><path d="M393.87,807.65c-39.55,97.84-52.16,198.07-55.55,301.84-.34,10.3,8.51,26,2,34-2.78,3.42-20.39,4.13-32.7,4.59-2.24.08-7.72,1.05-21.38,1.51-12.67.43-19.13.19-27.36-.2-6.76-.31-13.75-.89-19.74-4.07-12.51-6.63-16.94-24.18-10.69-36.89s6.74-12.85,20.87-11.94l10,1,17,2c.15,0,3-10.85,3-11a144.69,144.69,0,0,0,0-39c-12-90.37,14.47-163.46,4-248,8.83-52.29,11.47-103.31,10.29-156.33-1-43.38-8.65-86.41-9.35-129.79a404.86,404.86,0,0,1,6.11-76.78c3.17-17.93,8.66-38.22,23.95-48.1l.48-.68c3.08-2.25,2.44-7.35,5.2-10a10.12,10.12,0,0,1,3.4-1.89,226.79,226.79,0,0,1,53.75-13.79l.64.51a34.33,34.33,0,0,0-1,8.58c-.16,5.73.46,10.57,3.2,15.66,2.07,3.87,5.39,6.87,7.58,10.73,4.88,8.65,7.08,18.6,12.71,26.86,11.37,16.67,14.48,35.6,20,55,29.79,104.66,25.76,212.19,23,321a.2.2,0,0,0,0,.07c4.24,16.17-2.53,42.44-5,59-14.18,94.32,11,146.63,9,234-.21,9.24,7.92,28.79,7,38-1,10,11.08,20.46-33,18" fill="#ffe5d9" stroke="#000" stroke-miterlimit="10" stroke-width="0.25"/><path d="M268.53,390.87c-3.47,0-1.81-.27-12-14-5.86-7.9-8-18-13-23-8.86-8.86-4-20-16-38,0,0-2,2,6-5,6.94-6.07,17-10,17-15,0-28.3-48.41-85.14,7-138,43.77-41.75,128.06-41.8,177.42.13,56.37,47.89,43.62,123,25,157.46-7.49,13.85-42.1,37.85-52.45,43.41-1.69.91-20.61,13.74-33,18C358.63,382.33,271.62,390.85,268.53,390.87Z" fill="#ffe5d9" stroke="#000" stroke-miterlimit="10" stroke-width="0.25"/></svg>