<svg id="body_back_拷貝" data-name="body_back 拷貝" xmlns="http://www.w3.org/2000/svg" viewBox="0 0 720 1240"><g id="headWear_拷貝_4" data-name="headWear 拷貝 4"><path d="M236.65,711.13c-6.94,32.44-8.34,108,3.84,144.91,1.36,4.1-.44,9.2,2.21,12.47,2.1,2.62,5.44,3.52,8.57,4.26,27.4,6.49,26.66,6,54.65,7.8,9.76.63,17.3-.16,26-5,7.37-4.1,23.59-5.42,23.45-13.09a.37.37,0,0,1,.73-.1c1,4.82,2.08,8.75,6.68,18.75,1.67,3.64,19.66,9.16,23.4,9.34q46.74,2.25,93.53,1.24c2.77-.05,5.74-2.2,7.94-4,2.74-2.28,3-6.48,3.82-10.13,11.45-50,10.45-93,.23-138.3-1.17-5.23-1.54-11.25-5.51-14.44-3.24-2.62-7.78-1.33-11.65-2.58-43.63-14.11-128-33-237.89-11.11" fill="#005274" stroke="#231815" stroke-miterlimit="10" stroke-width="0.25"/></g></svg>