<svg id="body_left_拷貝" data-name="body_left 拷貝" xmlns="http://www.w3.org/2000/svg" viewBox="0 0 720 1240"><path d="M368.44,886c4.85,2.15,8.1,3.31,14.05,2.19,17-3.22,40.59-1.46,57.69,1.27a8.66,8.66,0,0,0,4.74-.09,6.4,6.4,0,0,0,3.28-3.3c6.09-13.92,9.09-27.92,6.38-41.66-2.79-14.12-3.26-28.68-2.71-43.06.34-8.89,1.87-17.78,1.14-26.64-.92-11,6.31-21.19,4.31-34.19-2.11-13.73-2.12-20.4-8-33l-68.19-7c-34.82-2.86-68.2,1.92-94.25,13.45-4,23.31.19,44.85-4.89,68-2.7,12.26-8,23.68-8.86,35.65-1.39,19.82.48,39.73,3.23,59.4a7.54,7.54,0,0,0,1.43,4.11c1.12,1.25,2.92,1.61,4.59,1.87,28.65,4.59,49.94,9.12,78.74,5.59a14.24,14.24,0,0,0,6.14-1.74c2.36-1.52,4.62-6.22,5.64-8.83,2.76-7.14,6.73-15.17,7.39-22.79" fill="#005274" stroke="#231815" stroke-miterlimit="10" stroke-width="0.25"/></svg>