<svg id="body_right" xmlns="http://www.w3.org/2000/svg" viewBox="0 0 720 1240"><defs><style>.cls-1,.cls-2{fill:#ffe5d9;}.cls-2{stroke:#000;stroke-miterlimit:10;stroke-width:0.25px;}</style></defs><polygon class="cls-1" points="370.97 1092.37 312.97 1105.37 296.97 799.37 370.97 792.09 370.97 1092.37"/><path class="cls-2" d="M325.42,809.52c39.55,97.85,2.16,202.08,5.55,305.85.33,10.29-8.51,26-2,34,2.78,3.41,20.39,4.13,32.7,4.58,2.24.09,7.72,1.06,21.38,1.52,12.67.42,19.13.18,27.35-.2,6.77-.32,13.76-.9,19.74-4.07,12.52-6.63,16.94-24.18,10.7-36.9s-6.74-12.84-20.87-11.93l-10,1-17,2c-.15,0-3-10.85-3-11-1.72-13.57-3.51-25.8,0-39,20.65-77.64,35.53-167.46,46-252C427.13,751.08,424.5,700.05,425.68,647c1-43.38,8.65-86.41,9.35-129.79a404.21,404.21,0,0,0-6.12-76.79c-3.17-17.92-8.65-38.21-23.94-48.09l-.48-.69c-3.08-2.24-2.44-7.34-5.2-10a10,10,0,0,0-3.4-1.89A227.25,227.25,0,0,0,342.13,366l-.63.52a34.69,34.69,0,0,1,1,8.58c.16,5.72-.46,10.56-3.2,15.66-2.07,3.87-5.4,6.86-7.58,10.73-4.88,8.64-7.08,18.6-12.71,26.86-11.37,16.66-14.48,35.6-20,55-29.79,104.65-25.76,212.19-23,321a.15.15,0,0,1,0,.07c-4.24,16.18,2.52,42.45,5,59,14.17,94.31-1,149,12,234,1.39,9.13-7.92,28.78-7,38,1,10-11.08,20.46,33,18h32"/><path class="cls-2" d="M451.47,390.87c3.47,0,1.81-.27,12-14,5.86-7.9,8-18,13-23,8.86-8.86,4-20,16-38,0,0,2,2-6-5-6.94-6.07-17-10-17-15,0-28.3,48.41-85.14-7-138-43.77-41.75-128.06-41.8-177.42.13-56.37,47.89-43.62,123-25,157.46,7.49,13.85,42.1,37.85,52.45,43.41,1.69.91,20.61,13.74,33,18C361.37,382.33,448.38,390.85,451.47,390.87Z"/></svg>