<svg id="body_fore" xmlns="http://www.w3.org/2000/svg" viewBox="0 0 720 1240"><defs><style>.cls-1{fill:#351100;stroke:#231815;stroke-miterlimit:10;stroke-width:0.25px;}</style></defs><g id="headWear"><path class="cls-1" d="M263.43,1074.56c23.4,4.41,23,9,46,3,4.39-1.14,10-1,14-4,10.47-7.85,11.42,19.77,13,34,1,9-1,22,2,32a107.31,107.31,0,0,1,3,14c.9,5.35-4.07,3.74-9,6-24.95,11.47-42,15.43-69.44,16.32-10.55.34-21.3-.16-31.27-3.61s-19.17-10.18-23.74-19.69c-8.84-18.43,2.55-41.29,19.46-52.77,7.07-4.8,22-.68,26-8.25Z"/><path class="cls-1" d="M457,1074.89c-23.39,4.4-23,9-46,3-4.39-1.14-10-1-14-4-10.47-7.85-11.42,19.77-13,34-1,9,1,22-2,32a109,109,0,0,0-3,14c-.89,5.35,4.08,3.74,9,6,25,11.47,42,15.43,69.45,16.32,10.55.34,21.3-.16,31.27-3.61s19.17-10.18,23.74-19.7c8.84-18.43-2.56-41.28-19.47-52.77-7.06-4.8-22-.68-26-8.24Z"/></g></svg>