<svg id="body_left" xmlns="http://www.w3.org/2000/svg" viewBox="0 0 720 1240"><defs><style>.cls-1{fill:#ffe5d9;stroke:#000;stroke-miterlimit:10;stroke-width:0.25px;}</style></defs><path class="cls-1" d="M371,390.37c-14.82-6.51-31.61,7.62-39.62,21.69s-8.44,31.09-8,47.28a570,570,0,0,0,9.08,86.84c8.2,44.73,16.62,82.54,9.81,127.49-2.47,16.31-2.92,40.67-1.14,57.5S350.08,766.86,367,767c19.32.16,45.27-26.33,44.12-45.61s-19.45-34-24.76-52.62c-6.44-22.51-6.05-46.32-5.61-69.73q1.47-78.7,2.95-157.42c.34-18-.17-38.22-13.06-50.81"/></svg>