<svg id="body_back" xmlns="http://www.w3.org/2000/svg" viewBox="0 0 720 1240"><defs><style>.cls-1{fill:#8c3832;stroke:#231815;stroke-miterlimit:10;stroke-width:0.25px;}</style></defs><g id="headWear_拷貝_3" data-name="headWear 拷貝 3"><path class="cls-1" d="M415.31,395.46c-24.22,20.74-59.52,19.63-89.43,10.18-10.75-3.4-21.61-7.78-32.81-6.94s-21.33,6.75-30.75,13.06a323.1,323.1,0,0,0-94.23,97.92,10.22,10.22,0,0,0-2,5.21A10.09,10.09,0,0,0,168,520c13.8,22.45,47.13,55.18,68.55,69.56,13-16,9-16,19-33-13,39-10,45.82-18,81-9.57,41.85-9.93,97-12,140,83.33,9.65,187.42,7.94,270-7.36-6.91-38.67-21.86-93.32-22-132.66-.1-25.24-5.85-49.14-10-74A181.11,181.11,0,0,1,475,592.67c17-2.51,31.14-15.08,41.75-29.24s18.65-30.32,29.49-44.29c-22.55-32-43.57-70.57-71.68-97.26Z"/></g></svg>