<svg id="body_left_拷貝" data-name="body_left 拷貝" xmlns="http://www.w3.org/2000/svg" viewBox="0 0 720 1240"><path d="M393.68,881.18c4.86,2.15,15,2,21.06,2.19,19.3.67,2.3,1.67,21.69,3.27,1.59.14,3.26.53,4.74-.09a5.41,5.41,0,0,0,3.28-3.3C449,865,450.65,864,452,850c2-20,5-25,3.08-46.51-.79-8.86,1.87-17.77,1.13-26.64-.91-11-1.68-25.19-3.68-38.19-2.11-13.73-1.12-20.4-7-33l-64.19-6c-34.83-2.86-67.2,5.92-93.25,17.45-4,23.32-7.09,40.92-5.89,66,.59,12.54,4,28.68,3.13,40.65-1.38,19.82,7.49,32.73,10.23,52.4a7.63,7.63,0,0,0,1.44,4.11c1.12,1.26,2.92,1.61,4.59,1.87,28.65,4.59,58.94,2.12,87.73-1.41,2.14-.26,12.35,2.43,14.15,1.26" fill="#005274" stroke="#231815" stroke-miterlimit="10" stroke-width="0.25"/><polygon points="273.04 869.04 268.04 861.04 271.04 852.04 273.04 839.04 283.04 792.04 295.04 872.04 273.04 869.04" fill="#005274" stroke="#231815" stroke-miterlimit="10" stroke-width="0.25"/><polyline points="450.36 828.04 448.04 812.04 445.08 792.74" fill="none" stroke="#000" stroke-miterlimit="10" stroke-width="0.25"/></svg>