<svg id="body_left_拷貝" data-name="body_left 拷貝" xmlns="http://www.w3.org/2000/svg" viewBox="0 0 720 1240"><path d="M385.82,388a109.33,109.33,0,0,1,21.12,22c17.57,24.41,11.53,41.42,27.45,98.63,5.34,19.19,10.7,38.43,13.64,58.13,2.13,14.17,3,28.49,3.85,42.79,3.31,55.07,5.63,101.4,8.94,156.46.07,1.2-3.2,2.1-4,3s-86.83,13-88,13c-77,1-41.63-5.1-101.53-5.87C282.76,670.76,274,578.87,275.82,475c.22-13,8.34-27.4,11.7-40,3-11.18,3.09-13.27,9.3-23,1-1.6,9.37-7,11-8,2.59-1.57,11-11,15-12,9.15-2.29,18-17,51-9Z" fill="#8c3832" stroke="#231815" stroke-miterlimit="10" stroke-width="0.25"/></svg>