<svg id="body_right_拷貝" data-name="body_right 拷貝" xmlns="http://www.w3.org/2000/svg" viewBox="0 0 720 1240"><path d="M269.34,1069.57a116.47,116.47,0,0,0,62.27,4.19c-1.52,3.28,0,9.82-.46,13.41s7.15,6.75,9.79,9.22c1.37,1.3,6.19,1.5,7.95,2.19,9.16,3.6,8.46.71,17.93,3.41s16.84,9.75,21.36,18.49c2.28,4.39,3.09,9.38,3.66,14.29,1.34,11.51.79,24.9-8.15,32.27a27.74,27.74,0,0,1-11.18,5.17c-8.92,2.2-18.22,4.67-27.4,4.3-20.41-.82-39.65-1.12-59.94-3.37-6-.67-13.56-4.92-18.46-8.52-6.33-4.65-14.54-12.4-14.89-20.25s3.26-14.07,3.5-21.93c.13-4.27,3.36-10.67,3.54-14.94.57-13.18,5.3-25.77,10-38.1" fill="#351100" stroke="#000" stroke-miterlimit="10" stroke-width="0.25"/><path d="M379.53,1071.39a116.44,116.44,0,0,0,62.25-4.52c-1,3.46,1.34,9.73,1.4,13.34s8,5.69,11,7.78c1.55,1.09,6.34.61,8.18,1,9.58,2.29,8.48-.47,18.23.88s18,7.31,23.73,15.34c2.86,4,4.36,8.86,5.61,13.65,2.93,11.21,4.25,24.54-3.57,33.08a27.78,27.78,0,0,1-10.36,6.68c-8.53,3.42-17.39,7.16-26.54,8.07-20.31,2-39.41,4.41-59.82,5-6.07.17-14.11-3-19.46-5.87-6.92-3.73-16.13-10.26-17.57-18s1.27-14.39.41-22.2c-.46-4.25,1.84-11,1.43-15.29-1.27-13.13,1.66-26.26,4.56-39.12" fill="#351100" stroke="#000" stroke-miterlimit="10" stroke-width="0.25"/></svg>