<svg id="body_fore_拷貝" data-name="body_fore 拷貝" xmlns="http://www.w3.org/2000/svg" viewBox="0 0 720 1240"><g id="headWear_拷貝_2" data-name="headWear 拷貝 2"><path d="M330.07,370.06,390,371.19c-2.91,4.39-.77,11.07,2.54,15.16s7.82,6.79,12.68,8.8c16.81,6.93,35.16,10.59,50.43,20.46,35.22,22.73,54.71,66.66,72.84,104.46,22,45.85,45.55,90.84,61,139.28,2.36,7.39,10,13.41,10,17h0c9.88,10.6,18,21.19,23.2,34.7,3.06,7.84,5.13,17.07,1,24.37-2.13,3.72-6.87,12.31-9.16,15.93-9,14.09-11.65,9.46-26,11-1.91.2-11.35-6-13-7-2.62-1.53-6.73-26-7-29-1.9-20.42-3.85-17.36-6-38-7.19-68.88-69.88-125.77-104-186l.3-.39c-2.9,81.52,9.58,162.17,16.69,243.43.63,7.21,8.87,41.65,4,47h0C460,902,444.68,992.4,439,1100c16,8,24.75,13.6,29,25,.9,2.4,2.34,6.3,2,9-.58,4.64-1.85,6.64-5,8-24.1,10.41-25,9-49,10-3.95.16-11.65-1-15-4s-11-8-13-14c-.74-2.22-1.26-12.26,2-20,4.64-11,11.2-20.11,13-18,6-119-6.39-214.29-27.11-286.19l-31.78-1C323.39,880.71,318,980,333,1095c3.07-3.59,6.16,33.38,7,39s-4.13,11.42-7.48,14.43A32,32,0,0,1,319,1155c-22.26,3.6-53,3-71.1-12.41-2.61-2.23-6.4-4.16-7-8.8a16.74,16.74,0,0,1,1.3-7.83c4.25-11.4,12.93-19,21.77-20-1-100-21-205-23.5-314.65h0c-4.87-5.35,3.37-39.79,4-47,7.11-81.26,19.59-161.91,16.69-243.43l.3.39c-34.11,60.27-96.8,117.16-104,186-2.15,20.64-4.1,17.58-6,38-.27,3-4.38,27.47-7,29-1.65,1-11.09,7.2-13,7-14.35-1.54-17,3.09-26-11-2.29-3.62-7-12.21-9.16-15.93-4.17-7.3-2.1-16.53,1-24.37,5.25-13.51,13.32-24.1,23.2-34.7h0c0-3.59,7.64-9.61,10-17,15.5-48.44,39.05-93.43,61.05-139.28,18.13-37.8,37.62-81.73,72.84-104.46,15.27-9.87,33.62-13.53,50.43-20.46,4.86-2,9.37-4.71,12.68-8.8S333,374.58,330,370.19" fill="#ffe5d9" stroke="#000" stroke-miterlimit="10" stroke-width="0.25"/><path d="M359.93,384.06c3.48,0,11.81-2.26,28-7.78,12.39-4.22,14.57-5.26,16.19-6.17,6.92-3.86,54.81-40.05,65.31-61.62,0,0,.58-1.12,1.2-2.39,8.76-18.23,32.88-102-24.7-155-44.5-41-119.63-41.93-169,0-56.37,47.89-43.62,123-25,157.46,7.48,13.85,54.81,56.07,65.16,61.63,1.69.91,3.76,1.91,16.15,6.16C349.13,381.78,356.84,384,359.93,384.06Z" fill="#ffe5d9" stroke="#000" stroke-miterlimit="10" stroke-width="0.25"/></g></svg>