<svg id="body_left_拷貝" data-name="body_left 拷貝" xmlns="http://www.w3.org/2000/svg" viewBox="0 0 720 1240"><path d="M287.88,1149.57c-11.5-.42-17.34-1.06-24.77-1.93-6.11-.72-12.4-1.69-17.62-5-10.92-6.81-13.81-23-7.34-34.11s6.93-11.21,19.68-9.48l9,1.55,9.27,1.89c.14,0,3.4-9.64,3.42-9.77L283,1066c6-100,16-168,31-236l51,124c-10.85,20.93-27,106-34,137-2,9,3.95,28.15,3,37.37-1,10,14,18.63-29,19.63Z" fill="#ffe5d9" stroke="#000" stroke-miterlimit="10" stroke-width="0.25"/><path d="M400.62,810.56C408.36,836.82,416,863.9,423,891.5c18.68,73.82,32.54,151.38,30.07,226.91-.33,10.29,8.51,26,2,34-2.78,3.41-20.38,4.13-32.7,4.58-2.24.09-7.72,1.06-21.38,1.52-12.66.42-19.13.18-27.35-.2-6.77-.32-13.76-.9-19.74-4.07-12.52-6.64-16.94-24.18-10.7-36.9s6.74-12.84,20.87-11.93l10,1,17,2c.15,0,3-10.85,3-11,1.72-13.57,2.7-25.61,0-39C376,969,314,887,300,805c-9.61-56.27-4.5-106.95-5.68-160-1-43.38-8.65-86.41-9.35-129.79a404.08,404.08,0,0,1,6.12-76.79c3.17-17.92,8.65-38.22,23.94-48.09l.48-.69c3.08-2.24,2.45-7.34,5.2-10a10,10,0,0,1,3.4-1.88,226.77,226.77,0,0,1,53.76-13.8l.64.52a34.23,34.23,0,0,0-1,8.58c-.16,5.72.47,10.56,3.2,15.66,2.07,3.87,5.4,6.86,7.58,10.73,4.88,8.64,7.08,18.6,12.71,26.86,11.37,16.66,14.48,35.6,20,55,29.79,104.65,25.76,212.19,23,321,0,0,0,0,0,.07.58,13-17,52.6-25,73.6" fill="#ffe5d9" stroke="#000" stroke-miterlimit="10" stroke-width="0.25"/><path d="M268.53,390.87c-3.47,0-1.81-.27-12-14-5.86-7.9-8-18-13-23-8.86-8.86-4-20-16-38,0,0-2,2,6-5,6.94-6.07,17-10,17-15,0-28.3-48.41-85.14,7-138,43.77-41.75,128.06-41.8,177.42.13,56.37,47.89,43.62,123,25,157.46-7.49,13.85-42.1,37.85-52.45,43.41-1.69.91-20.61,13.74-33,18C358.63,382.33,271.62,390.85,268.53,390.87Z" fill="#ffe5d9" stroke="#000" stroke-miterlimit="10" stroke-width="0.25"/></svg>