<svg id="body_fore_拷貝" data-name="body_fore 拷貝" xmlns="http://www.w3.org/2000/svg" viewBox="0 0 720 1240"><g id="headWear_拷貝_2" data-name="headWear 拷貝 2"><path d="M275.43,1076.56c23.4,4.41,7,9,30,3,4.39-1.14,10-1,14-4,10.47-7.85,11.42,18.77,13,33,1,9,2.57,19,2.57,29.44,0,6,2,8,2,15,0,7.81-1.07,4.74-6,7-25,11.47-23.55,8.11-51,9-10.55.34-20.31-.28-30.28-3.73s-22.17-5.18-26.74-14.69c-8.84-18.43,2.55-41.29,19.46-52.77,7.07-4.8,19,3.32,23-4.25Z" fill="#351100" stroke="#231815" stroke-miterlimit="10" stroke-width="0.25"/><path d="M466,1073.89c-23.39,4.4-28,5.11-55,3.11-4.52-.33-20,.89-24-2.11-10.47-7.85-22.5,24-25,38.11-1.6,9-2,14,0,29,1.09,8.17,1,12,3,19,1.49,5.21,6.07,4.74,11,7,25,11.47,64,11.32,91.46,12.21,10.55.34,21.3-.16,31.27-3.61s19.17-10.18,23.74-19.7c8.84-18.43,7.44-57.42-9.47-68.9-7.07-4.8-25-7-37,1Z" fill="#351100" stroke="#231815" stroke-miterlimit="10" stroke-width="0.25"/></g></svg>