<svg id="body_fore" xmlns="http://www.w3.org/2000/svg" viewBox="0 0 720 1240"><defs><style>.cls-1{fill:#fff;stroke:#231815;stroke-miterlimit:10;stroke-width:0.25px;}</style></defs><g id="headWear"><path class="cls-1" d="M264.43,1070.56c1.72,11.83,3.44,22.06,4,34,.07,1.36-4,2-4,2-.79.64-6.15,1.44-7,2-6,4-5.92,6.46-8,11-2.5,5.48-4.28,10.49-4.48,16.51-.11,3.18.22,6.53,2,9.19,2.25,3.41,6.35,5,10.23,6.3,16,5.25,32.41,5.93,49.28,6,8.48,0,12.49-.07,20-4,1.83-1,7-4.18,8-6,1.19-2.22,2.24-1.42,2.46-3.93.54-6.07.54-9.07.54-9.07-.73-2.9-.57-7-1-10-.69-4.88-4.51-18-9-54-7.5,0-14.49-4-22-4-13.49,0-27,0-41,4"/><path class="cls-1" d="M456.64,1070.37c-1.72,11.83-3.44,22.06-4,34-.06,1.36,4,2,4,2,.79.64,6.16,1.44,7,2,6,4,5.93,6.46,8,11,2.5,5.48,4.28,10.49,4.49,16.51.1,3.18-.23,6.53-2,9.19-2.24,3.41-6.34,5-10.23,6.3-16,5.25-32.4,5.93-49.28,6-8.48,0-12.48-.07-20-4-1.83-.95-7-4.18-8-6-1.19-2.22-2.24-1.42-2.46-3.94-.54-6.06-.54-9.06-.54-9.06.73-2.9.58-7,1-10,.7-4.88,4.51-18,9-54,7.5,0,14.5-4,22-4,13.5,0,27,0,41,4"/></g></svg>