<svg id="body_left_拷貝" data-name="body_left 拷貝" xmlns="http://www.w3.org/2000/svg" viewBox="0 0 720 1240"><path d="M450,1067.7a116.47,116.47,0,0,1-62.27,4.18c1.52,3.28,0,9.82.46,13.41s-7.16,6.75-9.79,9.23c-1.38,1.29-6.19,1.49-8,2.18-9.16,3.6-8.46.71-17.93,3.41s-16.84,9.75-21.36,18.5c-2.28,4.39-3.09,9.38-3.66,14.29-1.34,11.51-.79,24.89,8.15,32.27a27.88,27.88,0,0,0,11.18,5.17c8.92,2.2,18.22,4.66,27.4,4.29,20.4-.82,39.65-1.12,59.94-3.37,6-.67,13.56-4.92,18.46-8.52,6.33-4.65,14.54-12.4,14.89-20.25s-3.26-14.07-3.5-21.92c-.13-4.28-3.36-10.68-3.54-15-.57-13.17-5.3-25.77-10-38.1" fill="#351100" stroke="#000" stroke-miterlimit="10" stroke-width="0.25"/><path d="M339.76,1069.52a116.44,116.44,0,0,1-62.25-4.53c1.05,3.46-1.34,9.73-1.4,13.35s-8,5.68-11,7.77c-1.55,1.09-6.34.61-8.18,1.05-9.58,2.3-8.48-.47-18.23.89s-18,7.31-23.73,15.34c-2.86,4-4.36,8.85-5.61,13.64-2.93,11.21-4.25,24.54,3.57,33.09a28,28,0,0,0,10.36,6.68c8.53,3.42,17.39,7.15,26.54,8.07,20.31,2,39.41,4.4,59.82,5,6.07.18,14.11-3,19.46-5.87,6.92-3.72,16.13-10.25,17.57-18s-1.27-14.39-.42-22.2c.47-4.25-1.83-11-1.42-15.29,1.27-13.13-1.66-26.25-4.57-39.12" fill="#351100" stroke="#000" stroke-miterlimit="10" stroke-width="0.25"/></svg>