<svg id="body_back_拷貝" data-name="body_back 拷貝" xmlns="http://www.w3.org/2000/svg" viewBox="0 0 720 1240"><g id="headWear_拷貝_4" data-name="headWear 拷貝 4"><path d="M444.48,1077.13c-23.39,4.4-7,9-30,3-4.38-1.14-10-1-14-4-10.46-7.85-11.41,18.77-13,33-1,9-2.56,19-2.56,29.44,0,6-2,8-2,15,0,7.81,1.07,4.73,6,7,25,11.47,23.55,8.11,51,9,10.55.34,20.31-.28,30.28-3.73s22.17-5.18,26.74-14.7c8.84-18.43-2.55-41.28-19.46-52.77-7.07-4.79-19,3.32-23-4.24Z" fill="#351100" stroke="#231815" stroke-miterlimit="10" stroke-width="0.25"/><path d="M253.91,1074.46c23.39,4.4,28,5.11,55,3.11,4.52-.34,20,.89,24-2.11,10.47-7.85,22.5,24,25,38.11,1.6,9,2,14,0,29-1.09,8.17-1,12-3,19-1.49,5.21-6.08,4.73-11,7-25,11.47-64,11.32-91.46,12.2-10.55.34-21.3-.16-31.27-3.61S202,1167,197.45,1157.47c-8.84-18.43-7.44-57.42,9.47-68.9,7.07-4.8,25-7,37,1Z" fill="#351100" stroke="#231815" stroke-miterlimit="10" stroke-width="0.25"/></g></svg>