<svg id="body_fore" xmlns="http://www.w3.org/2000/svg" viewBox="0 0 720 1240"><defs><style>.cls-1{fill:#005274;stroke:#231815;stroke-miterlimit:10;stroke-width:0.25px;}</style></defs><g id="headWear"><path class="cls-1" d="M236.73,710.56c-6.94,32.44-19.34,112-7.15,148.91,1.35,4.1-.45,9.2,2.2,12.48,2.1,2.61,5.44,3.52,8.57,4.25,27.4,6.49,40.2,9.55,68.19,11.36,9.76.64,23.52-3.15,32.22-8,7.37-4.1,14.83-10,14.69-17.65a.37.37,0,0,1,.73-.09c1,4.81,2.08,8.74,6.68,18.74,1.68,3.64,19.66,7.17,23.4,7.35q46.74,2.25,93.54,1.24c2.76-.06,5.73-.2,7.93-2,2.75-2.28,3.4-6.4,3.83-10.13a627.59,627.59,0,0,0,.23-138.3c-.59-5.33-1.55-11.24-5.52-14.44-3.24-2.62-7.78-1.32-11.65-2.58-43.63-14.11-127.95-33-237.89-11.11"/></g></svg>