<svg id="body_back" xmlns="http://www.w3.org/2000/svg" viewBox="0 0 720 1240"><defs><style>.cls-1{fill:#8c6239;stroke:#000;stroke-miterlimit:10;stroke-width:0.25px;}</style></defs><g id="headWear_拷貝_3" data-name="headWear 拷貝 3"><path class="cls-1" d="M286.57,755.56c-14.44-4.62-34.75-6.09-42-11-10.95-7.39-12.12,4.6-20-3-3.83-3.68-22,21-15.7-36.21l11.7-320.79c-1.19-97.84-5.8-251.68,105.52-272.83,12.76-2.42,27.08-3.6,37.65,4l-.17-.13c23.1-8.58,52.89-3.76,73.68,9.47,72.09,45.89,74,191.62,62.59,272.6a18.74,18.74,0,0,0-.14,3.89l21.89,315.89c.57,8.37-18.12,13.37-26,16.15l-32.86,19.13a19.23,19.23,0,0,1-13.47-.41c-18.69-7.34-49.56,16.07-59.67,14.28C339.63,757.73,331.45,769.94,286.57,755.56Z"/></g></svg>