<svg id="body_back" xmlns="http://www.w3.org/2000/svg" viewBox="0 0 720 1240"><defs><style>.cls-1{fill:#8c3832;stroke:#231815;stroke-miterlimit:10;stroke-width:0.25px;}</style></defs><g id="headWear_拷貝_3" data-name="headWear 拷貝 3"><path class="cls-1" d="M455,199.4c3.95,31.68,25.79,55.22,51,56.79,16.22,1,18.61-14.23,29.09-25.95,8.89-9.94,27.18-15.39,27.09-27-.19-24.83-30.92-55.94-73.56-48.51Z"/><path class="cls-1" d="M454.9,123.49c-2.06-31.86-26.39-58.33-47.58-59.72-16.34-1.07-23.58,10.78-34.75,22-9.31,9.35-23.89,16-24.48,27.48-1.28,24.79,27.54,57.68,70.55,52.79Z"/><path class="cls-1" d="M496.65,159.72a25.93,25.93,0,0,0-4-18.93c-10.37-15.57-18.48-23.11-30-28.48-24.5-11.47-66,28.91-50.3,57.13,10.08,18.08,17.47,21.2,35.14,32C464.7,211.92,491.06,191,496.65,159.72Z"/></g></svg>