<svg id="body_right_拷貝_2" data-name="body_right 拷貝 2" xmlns="http://www.w3.org/2000/svg" viewBox="0 0 720 1240"><path d="M326.36,883.15c-4.86,2.15-15,2-21.05,2.18C286,886,303,887,283.62,888.61c-1.6.13-3.27.52-4.75-.1a5.41,5.41,0,0,1-3.28-3.3C271,867,269.39,865.94,268,852c-2-20-5-25-3.08-46.51.79-8.86-1.87-17.77-1.13-26.64.91-11,1.68-25.18,3.68-38.18,2.12-13.74,1.13-20.41,7-33l64.19-6c34.83-2.87,67.2,5.92,93.25,17.44,4,23.32,7.09,40.92,5.9,65.95-.6,12.55-4,28.68-3.14,40.65,1.38,19.82-7.49,32.73-10.23,52.4a7.63,7.63,0,0,1-1.44,4.11c-1.12,1.26-2.92,1.61-4.59,1.88-28.65,4.58-58.94,2.12-87.73-1.41-2.14-.27-12.35,2.42-14.15,1.25" fill="#005274" stroke="#231815" stroke-miterlimit="10" stroke-width="0.25"/><polygon points="447 871 452 863 449 854 447 841 437 794 425 874 447 871" fill="#005274" stroke="#231815" stroke-miterlimit="10" stroke-width="0.25"/><polyline points="269.69 830 272 814 274.96 794.7" fill="none" stroke="#000" stroke-miterlimit="10" stroke-width="0.25"/></svg>