<svg id="body_fore_拷貝" data-name="body_fore 拷貝" xmlns="http://www.w3.org/2000/svg" viewBox="0 0 720 1240"><g id="headWear_拷貝_2" data-name="headWear 拷貝 2"><path d="M236.73,710.56c-6.94,32.44-8.34,108,3.85,144.91,1.35,4.1-.45,9.2,2.2,12.48,2.1,2.61,5.44,3.52,8.57,4.25,27.4,6.49,26.66,6,54.65,7.8,9.76.63,17.3-.16,26-5,7.37-4.1,23.59-5.42,23.45-13.09a.37.37,0,0,1,.73-.09c1,4.81,2.08,8.74,6.68,18.74,1.68,3.64,19.66,9.17,23.4,9.35q46.74,2.25,93.54,1.24c2.76-.06,5.73-2.2,7.93-4,2.75-2.28,3-6.47,3.83-10.13,11.44-50,10.44-93,.23-138.3-1.18-5.23-1.55-11.24-5.52-14.44-3.24-2.62-7.78-1.32-11.65-2.58-43.63-14.11-127.95-33-237.89-11.11" fill="#005274" stroke="#231815" stroke-miterlimit="10" stroke-width="0.25"/></g></svg>