<svg id="body_right_拷貝_2" data-name="body_right 拷貝 2" xmlns="http://www.w3.org/2000/svg" viewBox="0 0 720 1240"><path d="M403.15,1070.36c13.88-2.61,17.29-6,39.76-2.56-4.71,9.94,1.87,25.55,3.77,32.78,7.5-2.27,10.49-4.4,19.26-5.23,2.88-.27,11.37-1.31,14.16-1.63,5-.58,5.64,0,8.11,2.66,6,6.42,7.44,13.29,10.11,21.42s-.19,16.12-5.93,23.83c-2.73,3.67-6.25,9.3-10.95,10.32-18.34,4-34.64,4.54-53.25,7-7.8,1-15.44,2.13-23.12.74s-16.27-2.44-19.77-8.8c-3.64-6.64-1.27-17.62-.68-25.09,1.29-16.13-3-36-.71-50.24Z" fill="#fff" stroke="#231815" stroke-miterlimit="10" stroke-width="0.25"/><path d="M285.66,1074.6c15-1.1,19-4.13,42.4,1.7-6.12,9.38-.95,25.61.23,33,8.2-1.46,11.62-3.26,21-3.15,3.07,0,12.19-.08,15.19-.11,5.41,0,6,.62,8.27,3.51,5.63,7,6.36,14,8.26,22.38s-2.24,13-9.2,20.06c-3.32,3.36-7.69,8.59-12.78,9.09-19.87,2-37.21.82-57.19,1.31-8.38.21-16.6.48-24.57-1.73s-17-4.15-19.93-10.86c-3.1-7,.67-17.64,2.16-25,3.21-15.9,1.17-33.09,5.18-47Z" fill="#fff" stroke="#231815" stroke-miterlimit="10" stroke-width="0.25"/></svg>