<svg id="body_right_拷貝" data-name="body_right 拷貝" xmlns="http://www.w3.org/2000/svg" viewBox="0 0 720 1240"><path d="M290.45,1067c14.11-.25,18.05-3,39.63,4.09-6.3,9-2.41,25.51-1.74,33,7.77-1,11.08-2.6,19.87-2,2.87.21,11.42.6,14.23.75,5.08.27,5.55,1,7.55,4,4.85,7.33,5.13,14.35,6.41,22.8s-2.87,15.87-9.81,22.52c-3.31,3.16-7.71,8.13-12.52,8.35-18.73.85-34.91-1.29-53.67-1.93-7.86-.26-15.58-.46-22.92-3.11s-15.64-5.11-18-12c-2.49-7.14,1.67-17.58,3.5-24.85,4-15.69,3.06-36,7.65-49.66Z" fill="#fff" stroke="#231815" stroke-miterlimit="10" stroke-width="0.25"/><path d="M399.85,1069.92c14.88-2.11,18.67-5.41,42.41-1.16-5.48,9.77.78,25.61,2.46,32.91,8.08-2,11.37-4,20.74-4.55,3.06-.17,12.15-.91,15.14-1.13,5.39-.4,6,.22,8.49,2.94,6.08,6.63,7.29,13.55,9.74,21.77s-1.36,13.14-7.83,20.64c-3.08,3.58-7.09,9.08-12.14,9.93-19.69,3.31-37.06,3.32-57,5.15-8.35.77-16.53,1.6-24.63-.07s-17.2-3-20.61-9.5c-3.56-6.75-.52-17.65.47-25.1,2.13-16.08-1.06-33.09,2-47.28Z" fill="#fff" stroke="#231815" stroke-miterlimit="10" stroke-width="0.25"/></svg>