<svg id="body_left" xmlns="http://www.w3.org/2000/svg" viewBox="0 0 720 1240"><defs><style>.cls-1{fill:#fff;stroke:#231815;stroke-miterlimit:10;stroke-width:0.25px;}</style></defs><path class="cls-1" d="M411.87,1070.55c-14.09-1-17.87-4-39.79,2,5.81,9.33,1.06,25.6,0,33-7.71-1.4-10.93-3.18-19.74-3-2.88.06-11.44,0-14.25,0-5.08,0-5.6.66-7.75,3.56-5.23,7.07-5.88,14.06-7.6,22.44s2.19,13,8.77,20c3.13,3.33,7.27,8.53,12.06,9,18.66,1.83,34.93.55,53.7.9,7.87.15,15.58.36,23.05-1.9s15.89-4.28,18.64-11c2.86-7-.75-17.64-2.19-25-3.13-15.88-1.33-33.08-5.19-47Z"/><path class="cls-1" d="M370,1070.37c-15-1-19-4-42.38,2,6.19,9.33,1.13,25.6,0,33-8.21-1.4-11.64-3.18-21-3-3.07.06-12.19,0-15.19,0-5.41,0-5.95.66-8.25,3.56-5.57,7.07-6.26,14.06-8.1,22.44s2.34,13,9.35,20c3.34,3.33,7.74,8.53,12.84,9,19.88,1.83,37.21.55,57.2.9,8.38.15,16.6.36,24.56-1.9s16.92-4.28,19.85-11c3.05-7-.79-17.64-2.34-25-3.32-15.88-1.4-33.08-5.52-47Z"/></svg>