<svg id="body_back" xmlns="http://www.w3.org/2000/svg" viewBox="0 0 720 1240"><defs><style>.cls-1{fill:#351100;stroke:#231815;stroke-miterlimit:10;stroke-width:0.25px;}</style></defs><g id="headWear_拷貝_3" data-name="headWear 拷貝 3"><path class="cls-1" d="M263,1074.89c20-5.89,14-8.89,38-6.89s24.8,4.87,27,10a96.62,96.62,0,0,1,8,29.89c1,9-1,22,2,32a109,109,0,0,1,3,14c.89,5.35-4.08,3.74-9,6-25,11.47-42,15.43-69.45,16.32-10.55.34-21.3-.16-31.27-3.61s-19.17-10.18-23.74-19.7c-8.84-18.43,2.56-41.28,19.47-52.77,7.06-4.8,22-.68,26-8.24Z"/><path class="cls-1" d="M456.26,1075.19c-20-5.89-14-8.89-38-6.89s-24.81,4.87-27,10a96.62,96.62,0,0,0-8,29.89c-1,9,1,22-2,32a109,109,0,0,0-3,14c-.89,5.35,4.07,3.74,9,6,25,11.47,42,15.43,69.44,16.32,10.55.34,21.3-.16,31.28-3.61s19.17-10.18,23.73-19.7c8.84-18.43-2.55-41.28-19.46-52.77-7.07-4.79-22-.68-26-8.24Z"/></g></svg>