<svg id="body_back_拷貝" data-name="body_back 拷貝" xmlns="http://www.w3.org/2000/svg" viewBox="0 0 720 1240"><g id="headWear_拷貝_4" data-name="headWear 拷貝 4"><path d="M360.07,384.06c-3.48,0-11.81-2.26-28-7.78-12.39-4.22-14.57-5.26-16.19-6.17-6.92-3.86-54.81-40.05-65.31-61.62,0,0-.58-1.12-1.2-2.39-8.76-18.23-32.88-102,24.7-155,44.5-41,119.63-41.93,169,0,56.37,47.89,43.62,123,25,157.46-7.48,13.85-54.81,56.07-65.16,61.63-1.69.91-3.76,1.91-16.15,6.16C370.87,381.78,363.16,384,360.07,384.06Z" fill="#ffe5d9" stroke="#000" stroke-miterlimit="10" stroke-width="0.25"/><path d="M330,371.76c2.91,4.39.77,11.07-2.54,15.15s-7.82,6.8-12.68,8.8c-16.81,6.94-35.16,10.6-50.43,20.46-35.22,22.73-54.71,66.67-72.84,104.46-22,45.86-45.55,90.85-61.05,139.28-2.36,7.4-10,13.41-10,17h0c-9.88,10.61-18,21.19-23.21,34.71-3,7.84-5.12,17.06-.95,24.37,2.13,3.72,6.87,12.31,9.16,15.92,9,14.09,11.64,9.47,26,11,1.91.21,11.35-6,13-7,2.61-1.52,6.72-26,7-29,1.9-20.41,3.85-17.35,6-38,7.19-68.87,69.88-125.77,104-186l-.3-.39C264,584,251.53,664.65,244.42,745.91c-.63,7.21-8.88,41.66-4,47h0c19.5,109.66,34.82,200.06,40.5,307.66-16,8-24.75,13.6-29,25-.9,2.4-2.34,6.3-2,9,.58,4.64,1.85,6.64,5,8,24.1,10.41,25,9,49,10,3.95.16,11.65-1,15-4s11-8,13-14c.74-2.23,1.26-12.26-2-20-4.64-11-11.2-20.11-13-18-6-119,6.39-214.29,27.11-286.19l31.78-1c20.72,71.9,26.11,171.19,11.11,286.19-3.07-3.59-6.16,33.37-7,39s4.13,11.42,7.48,14.43a32,32,0,0,0,13.52,6.57c22.26,3.59,53,3,71.1-12.42,2.61-2.22,6.39-4.16,7-8.8a16.78,16.78,0,0,0-1.3-7.83c-4.25-11.4-12.93-19-21.77-20,1-100,21-205,23.49-314.66h0c4.88-5.34-3.36-39.79-4-47-7.1-81.26-19.58-161.9-16.68-243.42l-.3.39c34.11,60.26,96.8,117.16,104,186,2.16,20.65,4.11,17.59,6,38,.28,3,4.39,27.48,7,29,1.66,1,11.1,7.21,13,7,14.36-1.53,17.06,3.09,26-11,2.3-3.61,7-12.2,9.17-15.92,4.17-7.31,2.09-16.53-1-24.37-5.25-13.52-13.32-24.1-23.21-34.71h0c0-3.59-7.63-9.6-10-17-15.49-48.43-39-93.42-61-139.28-18.13-37.79-37.62-81.73-72.84-104.46-15.27-9.86-33.62-13.52-50.43-20.46-4.86-2-9.38-4.71-12.69-8.8s-5.44-10.76-2.53-15.15" fill="#ffe5d9" stroke="#000" stroke-miterlimit="10" stroke-width="0.25"/></g></svg>