<svg id="body_right_拷貝" data-name="body_right 拷貝" xmlns="http://www.w3.org/2000/svg" viewBox="0 0 720 1240"><path d="M350.85,887.85c-4.85,2.15-8.1,3.31-14.05,2.18-17-3.21-40.59-1.46-57.69,1.28a8.76,8.76,0,0,1-4.74-.1,6.35,6.35,0,0,1-3.28-3.29C265,874,262,860,264.71,846.26c2.78-14.12,3.26-28.68,2.71-43.06-.34-8.9-1.87-17.78-1.14-26.65.91-11-6.31-21.18-4.31-34.18,2.11-13.74,2.12-20.41,8-33l68.19-7c34.82-2.86,68.2,1.92,94.24,13.44,4,23.32-.18,44.86,4.9,68,2.7,12.26,8,23.68,8.86,35.65,1.39,19.82-.48,39.72-3.23,59.4a7.51,7.51,0,0,1-1.43,4.1c-1.13,1.26-2.93,1.61-4.59,1.88-28.65,4.58-49.94,9.12-78.74,5.59a14.32,14.32,0,0,1-6.15-1.74c-2.35-1.52-4.62-6.23-5.63-8.84-2.76-7.13-6.74-15.16-7.39-22.78" fill="#005274" stroke="#231815" stroke-miterlimit="10" stroke-width="0.25"/></svg>