<svg id="body_left_拷貝" data-name="body_left 拷貝" xmlns="http://www.w3.org/2000/svg" viewBox="0 0 720 1240"><path d="M337.42,1074.94a116.41,116.41,0,0,1-62-7c.91,3.5-1.73,9.68-1.93,13.28s-8.25,5.37-11.28,7.34c-1.59,1-6.36.36-8.22.73-9.65,1.92-8.44-.8-18.24.17s-18.31,6.59-24.32,14.39c-3,3.92-4.7,8.69-6.14,13.42-3.37,11.08-5.21,24.36,2.27,33.2a27.9,27.9,0,0,0,10.08,7.08c8.39,3.75,17.11,7.84,26.21,9.11,20.22,2.82,39.21,6,59.58,7.35,6.06.41,14.22-2.43,19.67-5.1,7.06-3.45,16.52-9.62,18.27-17.28s-.71-14.43.45-22.2c.64-4.23-1.4-11.1-.82-15.34,1.78-13.06-.63-26.29-3-39.26" fill="#351100" stroke="#000" stroke-miterlimit="10" stroke-width="0.25"/><path d="M455.28,1077.47a116.42,116.42,0,0,1-62.41-.31c1.28,3.38-.68,9.8-.5,13.41s-7.63,6.22-10.43,8.5c-1.47,1.19-6.29,1-8.09,1.6-9.4,2.94-8.49.1-18.13,2.12s-17.5,8.51-22.64,16.9c-2.58,4.22-3.75,9.14-4.67,14-2.17,11.38-2.59,24.77,5.8,32.77a27.87,27.87,0,0,0,10.78,6c8.74,2.84,17.84,6,27,6.26,20.4.64,39.62,1.73,60,1,6.07-.24,13.88-3.94,19-7.17,6.65-4.19,15.4-11.33,16.32-19.13s-2.25-14.27-1.92-22.12c.18-4.27-2.58-10.89-2.46-15.16.38-13.18-3.43-26.09-7.2-38.72" fill="#351100" stroke="#000" stroke-miterlimit="10" stroke-width="0.25"/></svg>