<svg id="body_back_拷貝" data-name="body_back 拷貝" xmlns="http://www.w3.org/2000/svg" viewBox="0 0 720 1240"><g id="headWear_拷貝_4" data-name="headWear 拷貝 4"><path d="M415.23,396c-24.22,20.74-59.52,19.63-89.43,10.18-10.75-3.4-21.61-7.78-32.81-6.94s-21.33,6.75-30.75,13.06A323,323,0,0,0,168,510.25c-1,1.59-2,3.3-2,5.2a10.09,10.09,0,0,0,1.93,5.12c13.79,22.45,47.13,55.18,68.54,69.56,13-16,9-16,19-33-13,39-18.95,51.81-27,87-9.57,41.85-9.92,97-12,140,83.34,9.64,196.43,1.93,279-13.37-6.9-38.66-21.85-93.31-22-132.65-.09-25.24-5.84-49.14-10-74a181.84,181.84,0,0,1,11.41,29.11c17-2.5,31.14-15.07,41.75-29.23s18.65-30.33,29.49-44.29c-22.55-32-43.57-70.57-71.69-97.26Z" fill="#8c3832" stroke="#231815" stroke-miterlimit="10" stroke-width="0.25"/></g></svg>