<svg id="body_left_拷貝" data-name="body_left 拷貝" xmlns="http://www.w3.org/2000/svg" viewBox="0 0 720 1240"><path d="M316.89,1068.39c-13.88-2.6-17.29-6-39.76-2.55,4.71,9.94-1.87,25.55-3.77,32.78-7.5-2.27-10.49-4.4-19.26-5.23-2.87-.27-11.37-1.31-14.16-1.63-5.05-.58-5.64,0-8.11,2.66-6,6.42-7.44,13.29-10.11,21.42s.19,16.12,5.93,23.83c2.73,3.67,6.25,9.3,10.95,10.32,18.34,4,34.64,4.53,53.25,7,7.8,1,15.44,2.14,23.12.74s16.27-2.43,19.77-8.8c3.64-6.63,1.27-17.61.68-25.08-1.29-16.13,3-36,.71-50.24Z" fill="#fff" stroke="#231815" stroke-miterlimit="10" stroke-width="0.25"/><path d="M434.38,1072.64c-15-1.11-19-4.13-42.4,1.7,6.13,9.38.95,25.61-.23,33-8.2-1.46-11.62-3.26-21-3.15-3.07,0-12.18-.09-15.18-.11-5.42,0-6,.62-8.28,3.51-5.62,7-6.36,14-8.26,22.38s2.25,13,9.2,20.06c3.32,3.36,7.69,8.59,12.79,9.09,19.86,2,37.2.82,57.19,1.31,8.37.21,16.59.48,24.56-1.73s17-4.15,19.93-10.86c3.1-7-.67-17.65-2.16-25-3.21-15.9-1.17-33.09-5.18-47Z" fill="#fff" stroke="#231815" stroke-miterlimit="10" stroke-width="0.25"/></svg>