<svg id="body_left_拷貝" data-name="body_left 拷貝" xmlns="http://www.w3.org/2000/svg" viewBox="0 0 720 1240"><path d="M386.57,387.91a109.21,109.21,0,0,1,21.13,22c17.56,24.41,11.52,41.43,27.45,98.63,5.34,19.19,10.69,38.44,13.64,58.13,2.12,14.17,3,28.5,3.84,42.8,3.32,55.06,5.63,101.39,8.94,156.46.08,1.2-3.2,2.1-4,3s-86.83,13-88,13c-77,1-41.63-5.11-101.53-5.87,15.47-105.37,6.75-197.26,8.53-301.13.23-13,8.34-27.41,11.71-40,3-11.18,3.08-13.27,9.29-23,1-1.61,9.38-7,11-8,2.59-1.58,11-11,15-12,9.16-2.29,18-17,51-9Z" fill="#8c3832" stroke="#231815" stroke-miterlimit="10" stroke-width="0.25"/></svg>