<svg id="body_left" xmlns="http://www.w3.org/2000/svg" viewBox="0 0 720 1240"><defs><style>.cls-1,.cls-2{fill:#8c6239;}.cls-2{stroke:#000;stroke-miterlimit:10;stroke-width:0.25px;}</style></defs><path class="cls-1" d="M361,331.37l113,84c-34.16-9.67-60.83-10.33-95-20-1.17-.33-10-11-13-13-12-4-20.66-4.33-32-8"/><path class="cls-2" d="M244.62,260.58c.62-6.63,5-39.58,4.41-46.21-.6,6.2-6.63,38.76-10,44l-15-7.87a7.15,7.15,0,0,1-2.66-2,7,7,0,0,1-.91-4.06q-.09-6.57.31-13.12c1.18-19.9,5.56-39.45,11.21-58.51,2.86-9.62,3.74-3,7-12.47,2-5.63,11.16-21.16,17-24,4.65-2.26,9.92-7.56,15-8,7-.6,11.15-5.64,18.15-5.81,9.14-.23,54.88-4.9,62.85.81,23.1-8.59,50.77-10.64,73,0,93.45,44.12,99,188.31,79.56,269.71-.18.77-.37,1.53-.56,2.29l-141-58c2.6-.25-12,22.77-22,35-13.69,16.69-35.34,5.44-46,6.63,32-17,35-30.63,36-59.63.91.66-2-12-6-23-3.93-10.81-10.09-23.66-12-35l-3.6-40.27L308,261.37H284c-9.83,1.3-2.15,1.14-12,0-15.27-1.77-7.73,2.77-23,1"/><path class="cls-2" d="M504,395.37c-11,93.7,24,183.18,45.07,275.15,2.77,12.08,5.16,25.23-.07,36.46-6.31,13.53-21.56,20-35.51,25.35l-75.64,28.86a478.39,478.39,0,0,1-29.94-152.85c-1-32.35,1.35-65.06-4.7-96.85-6.34-33.27-20.38-65.27-21.21-99.12-.62-25.11-25.17-30.06-3-90"/></svg>