<svg id="body_right" xmlns="http://www.w3.org/2000/svg" xmlns:xlink="http://www.w3.org/1999/xlink" viewBox="0 0 720 1240"><defs><style>.cls-1{fill:#fff;}.cls-2{fill:#ccc;}.cls-3{fill:#dfc51a;}.cls-4{fill:#231815;}.cls-5{fill:#283331;}.cls-6{fill:url(#未命名漸層_200-2);}.cls-7{fill:#112d4e;}.cls-8{fill:#1b3d5c;}</style>
<linearGradient id="未命名漸層_200-2" x1="448.45" y1="310.95" x2="448.45" y2="289.41" gradientUnits="userSpaceOnUse">
	<stop offset="0" stop-color="#00c1ff"/>
<stop offset="1"/></linearGradient>
</defs><path class="cls-1" d="M419.5,289c2.53,8.81,5.84,20.8,16.4,22.08a51.82,51.82,0,0,0,15.17-.68c5.42-1,7.77-4.45,8.54-9.68,1.18-8.08,5.16-22.78-6.1-24.59-8.91-1.44-23.36-3.56-30.83,2.66-1.66,1.38-2,3.88-1.55,5.84,2.16,9.44,13.64,7.46,20.52,9.47l-4.19-4.19.23-1.75-.92.5q-2.91.24-2.91,3.86-3.25,2.68-1,3.94c.77,1.38,2.11,3,3,4.42A8.27,8.27,0,0,0,447,304c4.06-2.29,4.74-6.23,4.6-10.51-.14-4.44,2.55-8.47,3.14-12.94.42-3.24-3.06-6-6-6-3.59,0-5.58,2.8-6,6-.57,4.32-4.44,8.27-3.14,12.94-.27,2.1.8,2.5,3.24,1.19,2.66.68,3.6.39,2.8-.89,0-.86-1.36-2.47-1.79-3.05A17.94,17.94,0,0,0,439,286.1c-3.6-2.29-8.41-2.9-11.68.33a8.47,8.47,0,0,0-.13,11.5c5.61,6.39,18.07,2.47,21.33-4.54,1.95-4.22.82-9.6-4.09-11-2.22-.62-4.67-.5-6.95-.79a28.78,28.78,0,0,1-3.05-.46,6.36,6.36,0,0,1-1.91-.56c-.88-.47-.8-.19.21.85l-1.54,5.84q-1.37,1.11,1.19,0a24.42,24.42,0,0,1,3.52-.26c1.75-.06,3.52,0,5.27.07,3.82.13,8.3-.09,11.9,1.21l-3.58-2.76c-.49-2.42-.66-2.37-.54.15q0,1.44-.12,2.88-.17,2.88-.43,5.76c-.15,1.48-1.86,6,.38,4.34-1.07.78-4.2.53-5.4.59-2.93.14-6,.81-7.77-1.71-2.28-3.27-3.43-8-4.51-11.76-2.13-7.4-13.72-4.25-11.57,3.19Z"/><path class="cls-2" d="M433.47,299.87c1-2,6-11,11.26-7.27,8.11,5.76,10.64-6.89,10.17-8.24-1.86-5.21-25.57-8-29.43.51C424.13,287.81,430.22,306.36,433.47,299.87Z"/><path class="cls-2" d="M438.65,302.9a20,20,0,0,1,2.36-3.78c.34-.41.93-1.25,1.47-1.45-1.46.53,1.66,1.5,2.64,1.82a10.8,10.8,0,0,0,11.95-3.74c4.72-5.83,5.71-14.7-1.49-18.82s-18-4.65-25.73-2.25c-3.86,1.2-7.69,3.43-9.56,7.16-1.75,3.49-.85,7.68.15,11.26,1.12,4,2.75,8.64,5.78,11.63,4,3.93,9.69,2.82,12.43-1.83,3.92-6.67-6.45-12.72-10.36-6.06q4.93-3.42,6.48-.47.27.5-.33-.48a8.5,8.5,0,0,0-.78-1.41,24.79,24.79,0,0,1-1.52-4.12c-.33-1.15-.65-2.81-.86-3.67-.32-1.33.2.51-.32.57,1-.12,2.37-1.14,3.44-1.37a22,22,0,0,1,4.44-.45,28.06,28.06,0,0,1,9.62,1.4s1.37.42,1.06.45c1.08-.11,0,.71.16-.09A3.72,3.72,0,0,1,449,285l0,.45c-.25,0,.36-.43-.19.55a18,18,0,0,1-1.13,2.49,1.21,1.21,0,0,1,1-.36,16.93,16.93,0,0,0-1.85-1.22c-8.1-3.92-15,3.31-18.48,10C424.75,303.69,435.1,309.77,438.65,302.9Z"/><path class="cls-3" d="M458.44,278.68c-.36,6.18,0,12.49-.75,18.57s-2.66,11.94-6.05,13.56c-4.05,1.93-10-3.21-11.48-10.14s-2.27-15.34-1.27-22.54c.75-1.25,4.21-6.73,9.56-6.76C454.16,271.33,457.77,277.5,458.44,278.68Z"/><path class="cls-4" d="M458.06,278.68c-.44,8,.35,16.31-1.81,24.13-.76,2.72-2,6.39-4.8,7.68-2.55,1.17-5.35-.68-7.06-2.47a17.23,17.23,0,0,1-4.16-8.87,74.93,74.93,0,0,1-1.36-11.66c-.08-1.91-.07-3.83,0-5.74.08-1.24-.05-2.9.64-4a14.73,14.73,0,0,1,5-5c5.6-3.1,10.85,1.32,13.54,6.06a.38.38,0,0,0,.65-.38c-2.36-4.15-6.58-8.3-11.76-7.36a12.1,12.1,0,0,0-7,4.69,9.62,9.62,0,0,0-1.48,2.12,9.79,9.79,0,0,0-.29,2.3c-.1,1.16-.16,2.32-.19,3.48a71.5,71.5,0,0,0,.95,12.9c.59,3.71,1.32,7.34,3.58,10.42,1.56,2.12,3.83,4.19,6.55,4.51s4.73-1.66,6-3.88c2.14-3.83,2.81-8.45,3.15-12.77.43-5.39.23-10.82.52-16.22C458.84,278.2,458.09,278.2,458.06,278.68Z"/><path class="cls-5" d="M440,280.5l0,7.69a6.58,6.58,0,0,0,.2,2,1.83,1.83,0,0,0,2.11,1.25l12.19-.69a1.43,1.43,0,0,0,.86-.23c.85-.62,1-2.58,1.05-4.19.06-2.37.08-4.95-.74-6.83-1.09-2.53-3.18-2.72-5-2.5a32.07,32.07,0,0,0-10.62,3.24"/><path class="cls-5" d="M437,280.5l0,7.05a12.13,12.13,0,0,0,.31,3.45,4.79,4.79,0,0,0,3,3.18,7.15,7.15,0,0,0,2.8.22l3.53-.2,6.9-.38c1.43-.08,2.83-.14,3.95-1.17a5.5,5.5,0,0,0,1.54-2.82,23.51,23.51,0,0,0,.38-6.38,12.33,12.33,0,0,0-1.62-6.32,7,7,0,0,0-5.4-3.15,19.45,19.45,0,0,0-6.42.86,39,39,0,0,0-7.42,2.82,3,3,0,0,0-1.07,4.11,3.07,3.07,0,0,0,4.1,1.07c.42-.21.84-.41,1.27-.6l.35-.16.35-.14c.89-.36,1.8-.68,2.72-.95q1.14-.35,2.31-.6c.39-.09.77-.16,1.16-.23s.49-.08.73-.12-.34,0,.22,0,1,0,1.52-.05-.76-.19-.17,0a2.25,2.25,0,0,0,.35.09c.4.08-.14.14-.2-.1,0,.05.52.22.49.27s-.54-.54-.15-.09l.28.3c-.09-.1-.31-.52-.07-.06.07.14.15.3.23.44-.26-.44-.06-.19,0,0s.11.33.15.49.11.43.15.64.09.58,0,.15a29.13,29.13,0,0,1,.08,5c0,.34,0,.67-.08,1,.08-.72-.05.16-.11.36a2.12,2.12,0,0,1-.13.41l.14-.37c-.13.22-.12.21,0,0l.12-.18a1.48,1.48,0,0,1,1-.51c.29,0,.24,0-.14,0l-.32,0c-3.74.21-7.48.43-11.23.63l-.57,0c-.48,0-.06,0,.19.05-.47-.1.15.08.22.11a1.64,1.64,0,0,1,.62.79c-.18-.33-.09-.28-.05,0a6.78,6.78,0,0,1,0-.9c0-.52,0-1.05,0-1.57V280.5a3,3,0,0,0-3-3,3.06,3.06,0,0,0-3,3Z"/><path class="cls-6" d="M441.44,292.78c2.77-4.67,7.37,1.63,10.84,0,1.69-.8,5.74-5.46,5.74-2.25a51.66,51.66,0,0,1-1.92,13.52c-1.37,4.54-3.2,6.1-5.74,6.76-2.35.61-4.91-.91-7-3.38-1.91-2.25-4.46-10.14-4.46-16.9"/><path class="cls-1" d="M456.6,289.16l1.92.93a2.75,2.75,0,0,0,1.93.25,2.51,2.51,0,0,0,.6-4.57l-1.93-.93a2.64,2.64,0,0,0-1.93-.25,2.5,2.5,0,0,0-.59,4.57Z"/><path class="cls-1" d="M436.54,298.36a5.87,5.87,0,0,1,.88-.5l-.26.11a3.88,3.88,0,0,1,1-.28l-.29,0a3.22,3.22,0,0,1,1,0l-.3-.05.15,0a1.17,1.17,0,0,0,.86-.12,1.09,1.09,0,0,0,.52-.67,1.16,1.16,0,0,0-.11-.86,1.08,1.08,0,0,0-.68-.52,5.17,5.17,0,0,0-2.11,0,5.32,5.32,0,0,0-1.79.83,1.28,1.28,0,0,0-.52.67,1.15,1.15,0,0,0,.12.87,1.13,1.13,0,0,0,.67.52,1.11,1.11,0,0,0,.87-.12Z"/><path class="cls-7" d="M448.82,288.18a44.26,44.26,0,0,1,.07,8.84"/><path class="cls-8" d="M445.82,288.18a45,45,0,0,1,.07,8.84,3,3,0,0,0,.88,2.12,3.06,3.06,0,0,0,2.12.88,3,3,0,0,0,2.12-.88,3.32,3.32,0,0,0,.88-2.12,45,45,0,0,0-.07-8.84,3.27,3.27,0,0,0-.88-2.12,3,3,0,0,0-2.12-.88,3,3,0,0,0-2.12.88,2.85,2.85,0,0,0-.88,2.12Z"/><path class="cls-4" d="M422.65,287.05c.49-.48,1-.94,1.52-1.39.27-.23.54-.46.82-.68.1-.09.5-.38,0,0s.08-.05.21-.14a42.69,42.69,0,0,1,3.86-2.53q2.09-1.21,4.29-2.22a5.33,5.33,0,0,1,1.12-.5c-.78.12-.59.24-.23.1l.57-.23q1.2-.48,2.43-.9a46.72,46.72,0,0,1,4.62-1.32q1.05-.24,2.13-.42c.35-.07,1.57-.1.19-.05.41,0,.83-.1,1.24-.14a25.13,25.13,0,0,1,4.16-.05c.17,0,1.39.15.49,0s.12,0,.34.08a12.17,12.17,0,0,1,1.86.5c1.16.4-.52-.3,0,0,.28.15.57.28.84.44a7.55,7.55,0,0,0,.78.52s-.89-.78-.44-.32c.12.12.26.22.38.34a5.76,5.76,0,0,0,.62.68s-.65-1-.33-.41l.28.44a5.71,5.71,0,0,0,.45.85c0-.05-.38-1.11-.2-.46.06.22.15.43.21.65a4.5,4.5,0,0,0,8.68-2.4c-2.16-7.13-9-10.08-16-10-7.45.08-14.95,2.67-21.47,6.15a42.21,42.21,0,0,0-9.76,7,4.54,4.54,0,0,0,0,6.36,4.58,4.58,0,0,0,6.36,0Z"/></svg>