<svg id="body_fore_拷貝" data-name="body_fore 拷貝" xmlns="http://www.w3.org/2000/svg" viewBox="0 0 720 1240"><g id="headWear_拷貝_2" data-name="headWear 拷貝 2"><path d="M275,1067c1.72,11.83,3.44,21.06,4,33,.06,1.36-9.57,5.56-9.57,5.56-.79.64-8.87,3.6-9.43,4.44-6,9-3.49,4-5.57,8.56-2.5,5.48-4.28,10.49-4.48,16.51-.11,3.18.22,6.53,2,9.19,2.25,3.41,6.35,5,10.23,6.3,16,5.25,25.41,3.93,42.28,4,8.48,0,12.49-.07,20-4,1.83-1,7-4.18,8-6,1.19-2.22,2.24-1.42,2.46-3.93.54-6.07.54-9.07.54-9.07-.73-2.9-.57-7-1-10-.69-4.88-10.94-15.6-15.43-51.56-7.5,0-6.06-3.44-13.57-3.44-13.49,0-16.43-3.56-30.43.44" fill="#fff" stroke="#231815" stroke-miterlimit="10" stroke-width="0.25"/><path d="M463.64,1070.37c-1.72,11.83-.08,17.69-.64,29.63-.06,1.36,2,5,2,5-.39-1.1,4.72,2,5.64,3.37,4,6,5.93,6.46,8,11,2.5,5.48,4.28,10.49,4.49,16.51.1,3.18-.23,9.53-2,12.19-2.24,3.41-6.34,5-10.23,6.3-16,5.25-39.4,5.93-56.28,6-8.48,0-14.12.56-21.64-3.37-1.83-1-13-5.18-14-7a17.64,17.64,0,0,1-2-7,37.42,37.42,0,0,1,0-9c.73-2.9-.42-7,0-10,.7-4.89,2.51-16,7-52,7.5,0,24.14-5.63,31.64-5.63,13.5,0,34.36-.37,48.36,3.63" fill="#fff" stroke="#231815" stroke-miterlimit="10" stroke-width="0.25"/></g></svg>