<svg id="body_left" xmlns="http://www.w3.org/2000/svg" viewBox="0 0 720 1240"><defs><style>.cls-1{fill:#8c3832;stroke:#231815;stroke-miterlimit:10;stroke-width:0.25px;}</style></defs><path class="cls-1" d="M300.46,125.37c-.44-8.15,2.44-13.85,2-22-.63-11.76,7.72-26.77,17-33,8.24-5.54,19.61-.27,28,5,15,9.39,15.59,19.33,25,35,5.09,8.47,5.86,21.77.17,29.79-1.76,2.49,2.26-1.5-.17.21-2.6,1.82-.71,7.79-10,10-1.55.37-7.45,3.07-9,3-3.67-.17-4.45-5.24-5.3-9.09-2.8-12.63-12.94-23-24.79-25.3Z"/><path class="cls-1" d="M274,168.9c-13.32,12.9-29.34,19.7-40.55,34.47-5.36,7.06-6.9,21.66-9,30.27s2.49,9.75,9,15.73c6.86,6.26,14,15.52,23.31,15.27,12.89-.33,26.3-1.32,37.46-7.76,10.12-5.84,17.46-15.76,21.87-26.58s6.09-22.56,6.88-34.22c-1.52,1.29-5.73.57-7.52.29-18.88-2.94-31.59-15.18-37.3-33.41Z"/><path class="cls-1" d="M283.46,136.37c9.64-16.08,28.38-19.47,42-17,1.13.2,2.05.42,2.35.49,6.3,1.45,21.78,6.15,29.65,20.51,11.79,21.51-11,35.23-22,47-4.81,5.15-6.9,10.73-18,12-16.39,1.88-25.35,17-32,5-2.65-4.8-11.54-26.65-13-33C268.88,155.84,276.8,147.47,283.46,136.37Z"/></svg>