<svg id="body_left" xmlns="http://www.w3.org/2000/svg" viewBox="0 0 720 1240"><defs><style>.cls-1{fill:#8c3832;stroke:#231815;stroke-miterlimit:10;stroke-width:0.25px;}</style></defs><path class="cls-1" d="M370.75,385.6c-12.09-7.23-29.64-6.07-38.37,5-3.7,4.69-5.54,10.57-6.77,16.41-4.94,23.44-11,48.1-9.08,71.87a152.62,152.62,0,0,1,0,24c-1.18,13.76-3,27.23-4,41-.59,8,3.32,14.75,3.82,22.79.51,8.25,3.2,16.19,5.86,24l7.56-44.73c1.6-9.48,3.22-19,6.54-28,1.83-4.93,4.31-9.87,8.53-13,4-3,9.17-4,14.17-4.44,7.12-.58,14.56,0,20.88,3.31,8.61,4.51,13.93,13.34,18.82,21.73l5.47,9.4a33.69,33.69,0,0,1,5.46,16.16l5.71,39.33c8.21-19.18,8.21-40.75,6.18-61.52a39,39,0,0,0-2-10c-2.07-5.61-1.37-9.24-3-15,0,0-1.07-8.7-1-13,.56-32.73-17.62-65.3-35.54-92.7-3.86-5.91-8.08-11.85-14-15.66"/></svg>