<svg id="body_back" xmlns="http://www.w3.org/2000/svg" viewBox="0 0 720 1240"><defs><style>.cls-1{fill:#ffe5d9;stroke:#000;stroke-miterlimit:10;stroke-width:0.25px;}</style></defs><g id="headWear_拷貝_3" data-name="headWear 拷貝 3"><path class="cls-1" d="M360.07,384.06c-3.48,0-11.81-2.26-28-7.78-12.39-4.22-14.57-5.26-16.19-6.17-6.92-3.86-54.81-40.05-65.31-61.62,0,0-.58-1.12-1.2-2.39-8.76-18.23-32.88-102,24.7-155,44.5-41,119.63-41.93,169,0,56.37,47.89,43.62,123,25,157.46-7.48,13.85-54.81,56.07-65.16,61.63-1.69.91-3.76,1.91-16.15,6.16C370.87,381.78,363.16,384,360.07,384.06Z"/><path class="cls-1" d="M390,371.19c-2.91,4.39-.77,11.07,2.54,15.16s7.82,6.79,12.68,8.8c16.81,6.93,35.16,10.59,50.43,20.46,35.22,22.73,54.71,66.66,72.84,104.46,22,45.85,45.55,90.84,61,139.28,2.36,7.39,10,13.41,10,17h0c9.88,10.6,18,21.19,23.2,34.7,3.06,7.84,5.13,17.07,1,24.37-2.13,3.72-6.87,12.31-9.16,15.93-9,14.09-11.65,9.46-26,11-1.91.2-11.35-6-13-7-2.62-1.53-6.73-26-7-29-1.9-20.42-3.85-17.36-6-38-7.19-68.88-69.88-125.77-104-186l.3-.39c-2.9,81.52,9.58,162.17,16.69,243.43.63,7.21,8.87,41.65,4,47h0c-10.11,106.9-22.5,207.81-28.18,315.41,8.84.93,17.2,8.8,21.45,20.2a16.74,16.74,0,0,1,1.3,7.83c-.57,4.64-3.95,7.17-7,8.8-21,11.3-44.09,11.89-66.35,8.3-3.9-.63-7.93-1.45-11.27-4.46a17,17,0,0,1-5-14.42c.83-5.63,6-39.25,9-35.66,10-120.57,3.11-216.64-17.61-288.54l-31.78-1c-20.72,71.9-27.65,168-17.61,288.54,3.07-3.59,8.2,30,9,35.66a17,17,0,0,1-5,14.42c-3.34,3-7.37,3.83-11.27,4.46-22.26,3.59-45.32,3-66.35-8.3-3-1.63-6.4-4.16-7-8.8a16.74,16.74,0,0,1,1.3-7.83c4.25-11.4,12.61-19.27,21.45-20.2C263,999.16,250.61,898.25,240.5,791.35h0c-4.87-5.35,3.37-39.79,4-47,7.11-81.26,19.59-161.91,16.69-243.43l.3.39c-34.11,60.27-96.8,117.16-104,186-2.15,20.64-4.1,17.58-6,38-.27,3-4.38,27.47-7,29-1.65,1-11.09,7.2-13,7-14.35-1.54-17,3.09-26-11-2.29-3.62-7-12.21-9.16-15.93-4.17-7.3-2.1-16.53,1-24.37,5.25-13.51,13.32-24.1,23.2-34.7h0c0-3.59,7.64-9.61,10-17,15.5-48.44,39.05-93.43,61.05-139.28,18.13-37.8,37.62-81.73,72.84-104.46,15.27-9.87,33.62-13.53,50.43-20.46,4.86-2,9.37-4.71,12.68-8.8S333,374.58,330,370.19"/></g></svg>