<svg id="body_left" xmlns="http://www.w3.org/2000/svg" viewBox="0 0 720 1240"><defs><style>.cls-1{fill:#005274;stroke:#231815;stroke-miterlimit:10;stroke-width:0.25px;}</style></defs><path class="cls-1" d="M374.15,885.85c2.05,5.7,10.1,5.31,16.05,4.18a150.82,150.82,0,0,1,51.69-.72,8.76,8.76,0,0,0,4.74-.1,7.77,7.77,0,0,0,3.28-3.29c7.66-12.19,9.07-27.29,8.38-41.66s-3.26-28.68-2.71-43.06c.34-8.9,1.87-17.78,1.14-26.65-.91-11-.69-21.18-2.69-34.18-2.11-13.74-2.12-20.41-8-33l-64.19-5c-34.82-2.86-68.2,1.92-94.24,13.44q-6,35-11.9,70c-2,11.82-4,23.68-4.86,35.65-1.39,19.82.48,39.72,3.23,59.4a7.51,7.51,0,0,0,1.43,4.1c1.13,1.26,2.93,1.61,4.59,1.88a310.81,310.81,0,0,0,86.74,1.59,14.32,14.32,0,0,0,6.15-1.74c2.35-1.52,3.62-4.23,4.63-6.84a81.18,81.18,0,0,0,5.16-22.27"/></svg>