<svg id="body_back_拷貝" data-name="body_back 拷貝" xmlns="http://www.w3.org/2000/svg" viewBox="0 0 720 1240"><g id="headWear_拷貝_4" data-name="headWear 拷貝 4"><path d="M256.28,1070.94c1.72,11.83.08,17.69.64,29.63.06,1.35-2,5-2,5,.38-1.1-4.72,2-5.64,3.37-4,6-5.93,6.46-8,11-2.5,5.48-4.29,10.48-4.49,16.5-.11,3.19.22,9.54,2,12.2,2.24,3.41,6.34,5,10.22,6.3,16,5.25,39.41,5.92,56.29,6,8.48,0,14.12.55,21.64-3.37,1.82-1,13-5.19,14-7a17.85,17.85,0,0,0,2-7,37.42,37.42,0,0,0,0-9c-.73-2.9.42-7,0-10-.7-4.89-2.51-16-7-52-7.5,0-24.14-5.63-31.64-5.63-13.5,0-34.36-.37-48.36,3.63" fill="#fff" stroke="#231815" stroke-miterlimit="10" stroke-width="0.25"/><path d="M444.6,1067.68c-1.72,11.83-3.44,21.06-4,33-.06,1.35,9.57,5.56,9.57,5.56.79.63,8.87,3.59,9.43,4.44,6,9,3.49,4,5.57,8.56,2.5,5.48,4.28,10.48,4.48,16.5.11,3.19-.22,6.54-2,9.2-2.25,3.41-6.35,5-10.23,6.3-16,5.25-25.41,3.92-42.28,4-8.48,0-12.49-.07-20-4-1.83-1-7-4.18-8-6-1.19-2.22-2.24-1.43-2.46-3.94-.54-6.06-.54-9.06-.54-9.06.73-2.9.57-7,1-10,.69-4.89,10.94-15.61,15.43-51.56,7.5,0,6.06-3.44,13.57-3.44,13.49,0,16.43-3.56,30.43.44" fill="#fff" stroke="#231815" stroke-miterlimit="10" stroke-width="0.25"/></g></svg>