<svg id="body_right_拷貝" data-name="body_right 拷貝" xmlns="http://www.w3.org/2000/svg" viewBox="0 0 720 1240"><path d="M333.47,389.87a109.22,109.22,0,0,0-21.12,22c-17.57,24.41-11.53,41.43-27.46,98.64-5.34,19.18-10.69,38.43-13.64,58.12-2.12,14.17-3,28.5-3.84,42.8-3.32,55.06-5.63,101.4-8.94,156.46-.07,1.2,3.2,2.1,4,3s86.83,13,88,13c77,1,41.63-5.11,101.53-5.87-15.47-105.37-6.75-197.26-8.53-301.13-.22-13-8.34-27.41-11.7-40-3-11.18-3.09-13.28-9.3-23-1-1.61-9.38-7-11-8-2.59-1.58-11-11-15-12-9.15-2.29-18-17-51-9Z" fill="#8c3832" stroke="#231815" stroke-miterlimit="10" stroke-width="0.25"/></svg>