<svg id="body_left" xmlns="http://www.w3.org/2000/svg" xmlns:xlink="http://www.w3.org/1999/xlink" viewBox="0 0 720 1240"><defs><style>.cls-1{fill:#fff;}.cls-2{fill:#ccc;}.cls-3{fill:#dfc51a;}.cls-4{fill:#231815;}.cls-5{fill:#283331;}.cls-6{fill:url(#未命名漸層_200);}.cls-7{fill:#112d4e;}.cls-8{fill:#1b3d5c;}</style><linearGradient id="未命名漸層_200" x1="448.45" y1="310.95" x2="448.45" y2="289.41" gradientTransform="matrix(-1, 0, 0, 1, 720, 0)" gradientUnits="userSpaceOnUse"><stop offset="0" stop-color="#00c1ff"/><stop offset="1"/></linearGradient></defs><path class="cls-1" d="M288.93,285.83a63,63,0,0,1-4.11,11c-1.7,3.39-4.64,2.68-8.17,2.5-1.25-.06-4.29,0-5.4-.59,2.32,1.28.64-1.79.48-3.39q-.3-2.86-.48-5.75c-.07-1.28-.13-2.56-.17-3.84.12-2.52-.05-2.57-.54-.15L267,288.34c3.55-1.28,8.13-1.08,11.9-1.21,1.75-.06,3.52-.12,5.27-.07a24.42,24.42,0,0,1,3.52.26q2.55,1.1,1.19,0l-1.54-5.84c.37-1.65,1-.78-1-.46-1,.16-1.92.39-2.89.52-2.4.34-5,.21-7.35.77-4.87,1.16-6.4,6-4.83,10.38,2.73,7.59,15.91,11.78,21.63,5.26,6.88-7.85-2.87-16.95-11.19-12.25a17.84,17.84,0,0,0-5.53,5.06,10.4,10.4,0,0,0-1.54,2.5c-1.07,3.12,4.72,3.63,5.7,1,1.8-4.82-2.47-9.26-3-13.71-.42-3.23-2.45-6-6-6-2.91,0-6.42,2.79-6,6,.54,4.13,3.21,8.1,3.2,12.17,0,4.6,0,8.7,4.54,11.28a8.25,8.25,0,0,0,10.82-2.6c1-1.38,1.9-3,2.75-4.49q3-1.35-.4-4.37c.09-2.2-.65-3.42-2.24-3.68-2.13-.85-.75-.79-1.36,1.07l-4.19,4.19c6.87-2,18.37,0,20.52-9.47.44-2,.11-4.46-1.55-5.84-7.47-6.21-21.05-3.86-29.95-2.77-4.6.56-7.91,2.48-8.32,7.43-.46,5.6.53,11.74,1.34,17.27.71,4.83,2.69,8.33,7.67,9.54a47.59,47.59,0,0,0,15.24.93c11.14-1.09,14.53-12.88,17.2-22.19,2.14-7.43-9.43-10.61-11.57-3.19Z"/><path class="cls-2" d="M286.53,299.87c-1-2-6-11-11.26-7.27-8.11,5.76-10.64-6.89-10.17-8.24,1.86-5.21,25.57-8,29.43.51C295.87,287.81,289.78,306.36,286.53,299.87Z"/><path class="cls-2" d="M291.71,296.84c-3.44-6.67-10.38-13.9-18.48-10a19.47,19.47,0,0,0-2,1.21c.18-.12,1.09.24,1.18.37a9.22,9.22,0,0,1-1-2.14c-.14-.39-.58-1.34-.31-1.13,0,.38,0,.31,0-.22l-.57,2c0,1.05-1.31.26,0,.3a7.62,7.62,0,0,0,1.06-.45,26.28,26.28,0,0,1,9.1-1.4,22.9,22.9,0,0,1,5,.45c.93.2,2.62,1.32,3.44,1.37-.28,0-.28-1.89-.35-.48,0,.26-.46,2.25-.7,3.13a26.56,26.56,0,0,1-1.47,4.18,18.44,18.44,0,0,0-1,1.8l-.4.6q1.56-3.08,6.55.35c-3.91-6.65-14.29-.62-10.36,6.06,2.28,3.87,6.8,5.6,10.82,3.12,3.36-2.07,5.06-6.29,6.37-9.81,2.88-7.71,3.47-15.81-4.88-20.13-7.53-3.9-18.3-3.43-26.09-.53-8.21,3.05-10.32,9.87-6.35,17.56,2.22,4.3,6.17,7.3,11.16,6.87a9.77,9.77,0,0,0,4.9-1.55c1.24-1.05.11-.95.78-.31a17.78,17.78,0,0,1,3.29,4.78C284.89,309.76,295.25,303.7,291.71,296.84Z"/><path class="cls-3" d="M261.56,278.68c.36,6.18,0,12.49.75,18.57s2.66,11.94,6.05,13.56c4.05,1.93,10-3.21,11.48-10.14s2.27-15.34,1.27-22.54c-.75-1.25-4.21-6.73-9.56-6.76C265.84,271.33,262.23,277.5,261.56,278.68Z"/><path class="cls-4" d="M261.19,278.68c.48,8.82-.65,18.36,2.64,26.77.95,2.44,2.55,5.41,5.34,6,2.52.57,5-1,6.74-2.7a17.39,17.39,0,0,0,4.54-9.23,77.22,77.22,0,0,0,1.45-12.5,55.94,55.94,0,0,0-.16-6.6,6.25,6.25,0,0,0-.89-3.42,14.6,14.6,0,0,0-5.75-5.22c-5.81-2.66-11.11,1.84-13.86,6.68a.38.38,0,0,0,.65.38c2.26-4,6.39-8.12,11.4-6.91a11.92,11.92,0,0,1,6.37,4.69,4.64,4.64,0,0,1,1.18,2.32,46,46,0,0,1,.34,5.63,71.73,71.73,0,0,1-.9,11.61c-.54,3.47-1.16,6.91-3.14,9.88-1.47,2.2-3.85,4.6-6.67,4.75-3.12.17-4.94-3.08-5.91-5.59-3.26-8.35-2.14-17.81-2.62-26.57C261.91,278.2,261.16,278.2,261.19,278.68Z"/><path class="cls-5" d="M280,280.5l0,7.69a6.58,6.58,0,0,1-.2,2,1.83,1.83,0,0,1-2.11,1.25l-12.19-.69a1.43,1.43,0,0,1-.86-.23c-.85-.62-1-2.58-1.05-4.19-.06-2.37-.08-4.95.74-6.83,1.09-2.53,3.18-2.72,5-2.5a32.07,32.07,0,0,1,10.62,3.24"/><path class="cls-5" d="M277,280.5v5.77c0,.83,0,1.68,0,2.51a3,3,0,0,1,0,.6c.11-.55,0-.06-.05,0a1.49,1.49,0,0,1,.47-.67c.15-.11.83-.32.37-.23.9-.18.1-.05-.22-.06l-1.29-.08-3-.17-5.45-.3-1.45-.08c-.21,0-.43-.05-.64,0h-.16a1.07,1.07,0,0,1,.75.3l.39.24c.27.41.33.47.16.19,0,.09.2.68.07.17-.05-.2-.26-1.3-.17-.57a30,30,0,0,1-.11-4.64c0-.42.06-.84.09-1.27s-.1.44,0,0c.06-.22.08-.44.14-.66a6.78,6.78,0,0,1,.3-1c-.05.13-.27.48,0,0,.11-.18.52-.63.05-.15.09-.1.2-.2.28-.3.31-.37-.06.22-.15.09l.33-.19c.44-.29-.15.12-.21.08s1.16-.24.48-.15c-.48.06-.07,0,0,0h.45a8.66,8.66,0,0,1,.89.07c.61.06.21,0,.08,0l.87.15a28.75,28.75,0,0,1,2.89.66c1,.27,1.93.59,2.87.95l.57.23.29.11c-.2-.08-.2-.08,0,0l1.55.73a3,3,0,0,0,3-5.18A32.77,32.77,0,0,0,268.59,274a7.26,7.26,0,0,0-5.3,1.85,9.78,9.78,0,0,0-2.6,6.25,28,28,0,0,0,0,5.79c.25,2.46,1,5.23,3.81,5.8a25.18,25.18,0,0,0,3.59.27l3.52.19c2.15.12,4.37.42,6.53.35a4.73,4.73,0,0,0,3.71-1.81,6.81,6.81,0,0,0,1.17-4.3c0-2.62,0-5.23,0-7.84a3,3,0,0,0-6,0Z"/><path class="cls-6" d="M278.56,292.78c-2.77-4.67-7.37,1.63-10.84,0-1.69-.8-5.74-5.46-5.74-2.25a51.66,51.66,0,0,0,1.92,13.52c1.37,4.54,3.2,6.1,5.74,6.76,2.35.61,4.91-.91,7-3.38,1.91-2.25,4.46-10.14,4.46-16.9"/><path class="cls-1" d="M282.88,284.84l-1.93.93a2.48,2.48,0,0,0-.89,3.42,2.57,2.57,0,0,0,3.42.9l1.92-.93a2.51,2.51,0,0,0,.9-3.42,2.56,2.56,0,0,0-3.42-.9Z"/><path class="cls-1" d="M261.56,298.36a6,6,0,0,1,.89-.5l-.27.11a4.07,4.07,0,0,1,1-.28l-.3,0a3.22,3.22,0,0,1,1,0l-.29-.05.14,0a1.2,1.2,0,0,0,.87-.12,1.1,1.1,0,0,0,.4-1.53,1.09,1.09,0,0,0-.67-.52,5.22,5.22,0,0,0-2.12,0,5.37,5.37,0,0,0-1.78.83,1.12,1.12,0,0,0,.27,2.06,1.08,1.08,0,0,0,.86-.12Z"/><path class="cls-7" d="M271.18,288.18a44.26,44.26,0,0,0-.07,8.84"/><path class="cls-8" d="M268.18,288.18a45,45,0,0,0-.07,8.84,3.17,3.17,0,0,0,.88,2.12,3.06,3.06,0,0,0,2.12.88c1.5-.07,3.15-1.33,3-3a45,45,0,0,1,.07-8.84,3,3,0,0,0-.88-2.12,3,3,0,0,0-4.24,0,3.43,3.43,0,0,0-.88,2.12Z"/><path class="cls-4" d="M303.71,280.69c-5.25-5.17-12.16-8.72-19.11-11-6.66-2.18-14.4-3.35-21-.45a13,13,0,0,0-7.11,8.28,4.54,4.54,0,0,0,3.14,5.54,4.6,4.6,0,0,0,5.54-3.14,4.84,4.84,0,0,0,.29-.86c0,.06-.52,1-.19.47.07-.12.13-.26.2-.38s.31-.47.44-.71c.26-.48-.77.81-.06.1l.57-.58c.74-.71-.59.36-.11.07s.95-.57,1.45-.84-.44.21-.49.2a2.15,2.15,0,0,0,.41-.16c.28-.09.56-.19.85-.27a18.26,18.26,0,0,0,1.81-.38c-.05.17-1.14.1-.48.06l.48,0,1-.06c.74,0,1.48,0,2.21,0s1.36.11,2,.18-.3,0-.37-.05a2.83,2.83,0,0,0,.56.09L277,277a44.94,44.94,0,0,1,4.6,1.18c.73.23,1.45.47,2.16.73l1.15.43.57.23c.14.06.95.44.31.13s.58.26.72.33c.33.14.65.3,1,.45.77.37,1.54.76,2.29,1.17a43.69,43.69,0,0,1,4.46,2.78,7.06,7.06,0,0,0,1,.74c-.07,0-.84-.68-.26-.2l.52.42c.63.53,1.24,1.08,1.82,1.65a4.5,4.5,0,0,0,6.36-6.36Z"/></svg>