<svg id="body_left_拷貝" data-name="body_left 拷貝" xmlns="http://www.w3.org/2000/svg" viewBox="0 0 720 1240"><path d="M428.84,1065.12c-14.12-.26-18-3.06-39.63,4.09,6.29,9,2.41,25.51,1.74,33-7.78-1-11.08-2.59-19.87-2-2.88.2-11.42.6-14.23.75-5.08.26-5.56,1-7.55,4-4.86,7.33-5.13,14.35-6.41,22.81s2.87,15.86,9.81,22.51c3.3,3.16,7.71,8.13,12.52,8.35,18.73.85,34.91-1.28,53.67-1.92,7.86-.27,15.58-.46,22.92-3.12s15.64-5.1,18-12c2.49-7.15-1.67-17.58-3.5-24.85-4-15.69-3.07-36-7.65-49.67Z" fill="#fff" stroke="#231815" stroke-miterlimit="10" stroke-width="0.25"/><path d="M319.44,1068c-14.88-2.11-18.68-5.4-42.42-1.15,5.48,9.77-.77,25.61-2.45,32.9-8.08-2-11.37-4-20.74-4.55-3.07-.17-12.15-.9-15.14-1.13-5.4-.4-6,.22-8.49,2.94-6.09,6.63-7.29,13.56-9.75,21.78s1.37,13.13,7.83,20.63c3.09,3.58,7.1,9.09,12.15,9.93,19.69,3.31,37.06,3.32,57,5.16,8.35.76,16.53,1.59,24.63-.08s17.2-3,20.61-9.49c3.56-6.76.52-17.65-.47-25.11-2.14-16.07,1.06-33.09-2-47.28Z" fill="#fff" stroke="#231815" stroke-miterlimit="10" stroke-width="0.25"/></svg>