<svg id="body_left" xmlns="http://www.w3.org/2000/svg" viewBox="0 0 720 1240"><defs><style>.cls-1{fill:#351100;stroke:#000;stroke-miterlimit:10;stroke-width:0.25px;}</style></defs><path class="cls-1" d="M432.88,1071.8a116.42,116.42,0,0,1-62.35,2.76c1.44,3.32-.2,9.82.15,13.42s-7.31,6.59-10,9c-1.4,1.26-6.22,1.35-8,2-9.24,3.39-8.47.52-18,3s-17.06,9.36-21.78,18c-2.37,4.34-3.3,9.31-4,14.21-1.61,11.47-1.36,24.87,7.4,32.44a27.88,27.88,0,0,0,11.06,5.43c8.87,2.4,18.11,5.08,27.3,4.92,20.42-.35,39.66-.22,60-2,6.06-.53,13.67-4.61,18.65-8.09,6.43-4.51,14.82-12.07,15.35-19.91s-2.94-14.14-3-22c0-4.27-3.11-10.75-3.2-15-.27-13.19-4.7-25.88-9.09-38.32"/><path class="cls-1" d="M374,1169.37c11.66-8.88,31.43-24.11,29-39-.69-4.26-.89-7.84-2-12s-2.34-7-2-14c.1-2-1.2-5.16-2.14-7.69a.28.28,0,0,1,0-.09,4.4,4.4,0,0,0,.13-1.69c-.05-.45-.13-.88-.19-1.33h0s0-.06,0-.09a49.76,49.76,0,0,0-2.76-10.55h0l-.27-1.09a4.94,4.94,0,0,0-1-2l0,0c-.3-.69-.63-1.38-.95-2.07a.14.14,0,0,1,.13-.21,116.23,116.23,0,0,0,37.92-5.73l.51-.16c4.39,12.44,8.82,25.13,9.09,38.32.09,4.27,3.17,10.75,3.2,15,.06,7.86,3.54,14.16,3,22s-8.92,15.4-15.35,19.91c-5,3.48-12.59,7.56-18.65,8.09-14.25,1.25-28,1.55-41.94,1.75-.17,0-12.87-.31-12.71-.36C363.79,1174.09,368.25,1173.77,374,1169.37Z"/><path class="cls-1" d="M389.73,1071.69a116.45,116.45,0,0,1-62.36,2.76c1.45,3.31-.19,9.82.16,13.42s-7.31,6.58-10,9c-1.4,1.26-6.22,1.35-8,2-9.24,3.39-8.47.52-18,3s-17.06,9.36-21.78,18c-2.37,4.34-3.3,9.31-4,14.2-1.61,11.48-1.37,24.88,7.4,32.45a28,28,0,0,0,11.06,5.43c8.87,2.4,18.11,5.08,27.3,4.92,20.42-.36,39.66-.22,60-2,6.05-.53,13.67-4.61,18.65-8.09,6.43-4.51,14.82-12.07,15.35-19.91s-2.94-14.14-3-22c0-4.28-3.11-10.75-3.2-15-.27-13.19-4.7-25.89-9.09-38.32"/></svg>