<svg id="body_fore" xmlns="http://www.w3.org/2000/svg" xmlns:xlink="http://www.w3.org/1999/xlink" viewBox="0 0 720 1240">
	<defs>
	<style>
		.cls-1{fill:#fff;}
		.cls-2{fill:#798080;}
		.cls-3{fill:#ccc;}
		.cls-4{fill:#dfc51a;stroke:#231815;stroke-miterlimit:10;stroke-width:0.25px;}
		.cls-5{fill:#283331;}
		.cls-6{fill:url(#未命名漸層_200);}
		.cls-7{fill:#112d4e;}//
		.cls-8{fill:#1b3d5c;}//
		.cls-9{fill:#231815;}
		.cls-10{fill:url(#未命名漸層_200-2);}

	</style>
	<linearGradient id="未命名漸層_200" x1="305.43" y1="302.68" x2="305.43" y2="283.58" gradientUnits="userSpaceOnUse">
		<stop offset="0" stop-color="#00c1ff"/><stop offset="1"/>
	</linearGradient>
	<linearGradient id="未命名漸層_200-2" x1="404.75" y1="303.11" x2="404.75" y2="283.12" gradientUnits="userSpaceOnUse">
		<stop offset="0" stop-color="#00c1ff"/><stop offset="1"/>
	</linearGradient>
	</defs>
	<g id="headWear">
	<path class="cls-1" d="M282.35,280.87c2.86,9.55,6.48,21.44,17.91,22.53a48.62,48.62,0,0,0,16.66-1.07c4.81-1.32,6.62-4.88,7.29-9.51.81-5.59,1.7-11.58,1.43-17.25-.25-5.19-3.69-7.22-8.48-7.8-9.32-1.11-23.58-3.55-31.53,2.8-1.66,1.33-2,3.92-1.54,5.84,2.3,9.7,14.4,7.58,21.52,9.57l-4.19-4.19c-.43-1.25.76-1.14-.22-1.48-2.06-.71-3.69,3.92-3.82,4.18-2.24,4.78-1.91,2.59.21,4.94a13.05,13.05,0,0,1,1.51,2.44c2.26,3.88,6.08,6.42,10.67,4.76,4.05-1.46,6.23-5.42,6.15-9.61,0-2.29-.34-3.71.5-5.92.94-2.47,2.07-4.59,2.43-7.24.44-3.24-.78-6.4-4.19-7.38-2.79-.8-7,1-7.38,4.19-.67,4.93-3.83,8.84-3.61,14,0,.52.09,1,.16,1.56,0,2.49,2,2.53,5.9.15,0-.59-1-2-1.26-2.44a18.73,18.73,0,0,0-5.32-5.5c-3.82-2.54-9-3.63-12.62-.1a8.43,8.43,0,0,0-.14,11.55c5.69,6.42,18.24,2.58,21.88-4.25,2.18-4.08,1.23-9.55-3.47-11.23-2.37-.84-5.27-.64-7.75-.93-1.11-.13-2.24-.24-3.33-.48a7.4,7.4,0,0,1-2.07-.57c-.9-.48-.9-.22,0,.79l-1.54,5.83q-1.5,1.09.92.11a14.73,14.73,0,0,1,3-.34c2-.13,4-.05,5.95,0,4.34.12,9.55-.16,13.68,1.27l-3.59-2.76q-.71-3.61-.52.21c0,1.3-.1,2.61-.18,3.92-.13,2-.29,3.91-.5,5.86a51.42,51.42,0,0,1-.75,5.25q2.47-2.74-1.12-1.37-1.4.17-2.79.24c-3.43.21-7.35,1.09-9.5-1.74-2.45-3.23-3.69-8.23-4.82-12-2.21-7.38-13.8-4.24-11.58,3.19Z"/><path class="cls-2" d="M291,285.56c5.25,5.28,18.64,3.8,24.93-.5,2.92-2,4.5-6.82,4.05-9-1.14-5.42-26.74-8.52-30.9,0C287.64,279,288.75,283.31,291,285.56Z"/><path class="cls-3" d="M286.75,289.81c8.2,7.26,22.27,6.4,31.31,1,8.26-4.92,11.56-17.79,1.83-22.76-7.49-3.83-18.2-4.39-26.2-2.06-11.18,3.24-14.48,14.84-6.94,23.82,5,5.92,13.43-2.61,8.49-8.49s14.84-4.24,17.83-3.15a10.59,10.59,0,0,0,1.39.55c.64.43.74.45.29.08q1.35,1.49-.69-1.91a11.48,11.48,0,0,1-.86,2.41,6.13,6.13,0,0,1-2.91,2c-3.87,1.65-11.5,3.14-15.05,0C289.48,276.22,281,284.67,286.75,289.81Z"/><path class="cls-4" d="M321.09,274.05c-.55,5.49,0,11.09-1.17,16.48s-4.16,10.6-9.49,12c-6.35,1.72-15.66-2.84-18-9s-3.56-13.6-2-20a21.95,21.95,0,0,1,30.66.49Z"/><path class="cls-5" d="M292.23,275.67l0,6.82a3.35,3.35,0,0,0,.31,1.78c.62,1.06,2.09,1.15,3.31,1.11l19.12-.6c.46,0-.4-.78.06-.78,3,0,3-1.56,3-3,0-3,.27-7.33-1-9-1.72-2.25-5.22.38-8,.57a80.38,80.38,0,0,0-16.66,2.88"/><path class="cls-5" d="M289.23,275.67l0,4.63a15.34,15.34,0,0,0,.25,4.44c1,3.42,4.59,3.7,7.59,3.6l9.31-.29,4.66-.15,2.45-.08a7.36,7.36,0,0,0,2.39-.2,3.15,3.15,0,0,0,2.2-2.89,2.76,2.76,0,0,0-.13-1c-.05-.14-.12-.29-.18-.43-.28-.71-.24-.47.13.73l-2.21,2.9c-.38.06-.35.07.11,0l1.13-.16a5.82,5.82,0,0,0,1.51-.55,4.77,4.77,0,0,0,1.93-1.95c.76-1.44.64-3.09.66-4.66,0-3.56.42-8.84-3.25-10.87-1.88-1-4-.67-6,0a27.19,27.19,0,0,1-2.66.81c-.38.07-.43.08-.16,0l-.94.06-1.64.15a87.46,87.46,0,0,0-14.88,2.77c-3.71,1-2.13,6.83,1.6,5.79A77.46,77.46,0,0,1,304.27,276c2-.27,4.11-.27,6.12-.64,1.41-.26,2.75-.82,4.12-1.2l.47-.1c-.25,0-.27,0-.06,0,.55-.06.4,0-.07-.09l-.17-.12c-.18-.26-.19-.25,0,0l-.1-.25a5.6,5.6,0,0,1,.17.54A15.33,15.33,0,0,1,315,278a32.34,32.34,0,0,0,0,3.81c-.08-.64.13-.34,0,0a4.45,4.45,0,0,1,.66-.86c-.28.16-.28.15,0,0l-.3.07c.23-.06.13-.06-.31,0a2.37,2.37,0,0,0-.92.15,3.13,3.13,0,0,0-2.2,2.89,2.7,2.7,0,0,0,.12,1l.18.44c.28.71.24.46-.12-.73l2.2-2.9c.35-.06.24-.07-.3,0l-1,0-2,.06-3.93.12-7.59.24c-1.23,0-2.45.1-3.68.12-.21,0-1.1.07-.92,0-.36-.1-.43-.11-.2,0a1,1,0,0,1,.52.88,7.66,7.66,0,0,0,0-1.72v-1.94l0-3.9c0-3.86-6-3.87-6,0Z"/><path class="cls-6" d="M294.43,286.56c4.36-4.14,11.57,1.45,17,0,2.67-.7,9-4.84,9-2a27.75,27.75,0,0,1-3,12c-2.15,4-5,5.42-9,6-3.69.55-7.71-.8-11-3-3-2-7-9-7-15"/><path class="cls-1" d="M318,280.29l3,.83a2.5,2.5,0,0,0,1.33-4.82l-3-.83a2.5,2.5,0,0,0-1.33,4.82Z"/><path class="cls-1" d="M289.29,291.74a10.71,10.71,0,0,1,2.3-.62h-.09l.17,0,.26,0,.61,0a9.71,9.71,0,0,1,1.21.05,1.13,1.13,0,0,0,1.13-1.12,1.16,1.16,0,0,0-1.13-1.13,11.07,11.07,0,0,0-5.06.72,1.28,1.28,0,0,0-.67.52,1.15,1.15,0,0,0-.11.87,1.13,1.13,0,0,0,1.38.78Z"/><path class="cls-7" d="M306,282.48a22.26,22.26,0,0,1,.11,7.85"/><path class="cls-8" d="M303.11,283.28c.08.4.15.79.2,1.19l-.1-.79a22.7,22.7,0,0,1,0,6.05l.11-.8-.09.6a3.3,3.3,0,0,0,.3,2.31,3.08,3.08,0,0,0,1.8,1.38,3,3,0,0,0,2.31-.3,2.94,2.94,0,0,0,1.38-1.79,25,25,0,0,0-.12-9.45,3,3,0,0,0-3.69-2.09,3,3,0,0,0-1.79,1.38,3.35,3.35,0,0,0-.31,2.31Z"/><path class="cls-9" d="M285.44,277.78c.68-.66,1.38-1.28,2.1-1.89.9-.76-.75.53.21-.16.38-.27.76-.55,1.15-.81a32.3,32.3,0,0,1,4.3-2.4l.64-.28c-.53.22-.56.24-.09.05s.87-.34,1.32-.49c.78-.27,1.57-.51,2.36-.72s1.61-.4,2.42-.55c.46-.09.93-.16,1.39-.24-1.19.19.13,0,.39,0a33.65,33.65,0,0,1,5.12-.12,18.56,18.56,0,0,1,2.46.21l.55.11,1.21.24a34.67,34.67,0,0,1,4.87,1.5c.47.19.44.17-.1-.05l.64.29.95.47c.84.43,1.65.91,2.45,1.41a4.53,4.53,0,0,0,6.15-1.61,4.6,4.6,0,0,0-1.61-6.16c-13.92-8.87-33.5-6.65-45.24,4.87a4.54,4.54,0,0,0,0,6.36,4.58,4.58,0,0,0,6.36,0Z"/><path class="cls-1" d="M426.55,277.89c-1.14,3.78-2.38,8.8-4.83,12-2.17,2.86-6,2-9.49,1.74-.94-.05-1.87-.12-2.8-.23q-3.6-1.38-1.12,1.37c-.74-1.39-.58-3.72-.75-5.25-.21-1.95-.37-3.91-.5-5.87-.08-1.3-.14-2.61-.18-3.92q.18-3.81-.52-.2l-3.59,2.75c4.13-1.42,9.34-1.14,13.68-1.26,2,0,4-.13,5.95,0a16.26,16.26,0,0,1,3,.34c1.61.67,1.92.63.92-.1l-1.54-5.84c.38-1.61.49-.85-1.33-.38a30.92,30.92,0,0,1-4.06.65c-2.4.28-4.95.16-7.28.8-4.87,1.34-6.1,6.65-4.17,10.86,3.33,7.22,16.31,11.3,22.11,4.75a8.55,8.55,0,0,0,.22-11.23c-3.24-3.68-8.54-3-12.31-.65a18.2,18.2,0,0,0-5.53,5.31c-.29.42-1.94,2.62-1.72,3.06l5.81.63.18-1.56c1.73-4.63-2.93-10.34-3.54-14.78-.44-3.24-4.55-4.94-7.38-4.19-3.47.91-4.62,4.18-4.19,7.38.61,4.48,3.27,7.79,3,12.37s1.57,8.78,6.06,10.4c4.2,1.51,8.15-.55,10.4-4.2.48-.77.72-1.71,1.27-2.44s1.86-1.29,2.34-2c-3.64,5.73-1.25-9.12-5-7.44l-.72-.31q-1-.6,0,1.59l-4.2,4.19c7.11-2,19.22.11,21.52-9.58.46-1.91.12-4.51-1.54-5.83-7.76-6.2-21.47-3.94-30.6-2.91-4.94.56-8.92,2-9.39,7.57s.6,12,1.41,17.59c.62,4.3,2.23,8,6.71,9.37,5,1.57,11.36,1.67,16.52,1.26s9-2.08,11.87-6.43c3.12-4.78,5.13-10.72,6.76-16.15,2.22-7.42-9.36-10.59-11.57-3.19Z"/><path class="cls-2" d="M429.47,285.77c-5.25,5.28-18.64,3.8-24.93-.5-2.92-2-4.5-6.82-4.05-9,1.14-5.43,26.74-8.52,30.9,0C432.83,279.22,431.72,283.52,429.47,285.77Z"/><path class="cls-3" d="M425.23,281.53c-3.57,3.16-11.14,1.66-15.05,0a6.2,6.2,0,0,1-2.91-2,25.11,25.11,0,0,1-.86-2.42q-2,3.41-.69,1.92c-.37.3-.37.33,0,.08a13.68,13.68,0,0,0,1.67-.71c3-1.06,22.75-2.7,17.83,3.15s3.51,14.41,8.49,8.49c7.53-9,4.26-20.6-6.94-23.83-8-2.31-18.7-1.76-26.2,2.07-9.73,5-6.42,17.84,1.83,22.76,9,5.39,23.11,6.26,31.31-1C439.51,284.89,431,276.42,425.23,281.53Z"/><path class="cls-4" d="M399.38,274.26c.55,5.49,0,11.09,1.17,16.48s4.16,10.59,9.49,12c6.35,1.72,15.66-2.85,18-9s3.56-13.6,2-20a21.95,21.95,0,0,0-30.66.49Z"/><path class="cls-5" d="M428.24,274.88l0,6.82a3.35,3.35,0,0,1-.31,1.78c-.62,1.06-2.08,1.15-3.31,1.11L405.53,284c-.46,0-1.11.2-1.53,0-1.33-.55-1.4-2.51-1.46-3.95-.09-2.09-.81-6.38.46-8.05,1.72-2.25,5.69-.41,8.51-.23a81.07,81.07,0,0,1,16.66,2.89"/><path class="cls-5" d="M425.24,274.88l0,3.65v2c0,.3-.2,1.79,0,2-.14-.13.28-.62.32-.68.3-.46.31-.07.16-.21s-.11,0-.22,0a4.52,4.52,0,0,1-.52,0c-1.34,0-2.68-.09-4-.13l-7.59-.24c-2.6-.08-5.25-.32-7.85-.25a3.42,3.42,0,0,0-.45,0c-.54.1-.48-.2-.15.15l.34.11c.48.57.63.7.43.38-.16,0,0-.25,0,0,0-.18-.11-.42-.14-.6.07.43,0-.08,0-.15,0-.42,0-.85-.06-1.28a41.59,41.59,0,0,1-.25-5,4.62,4.62,0,0,1,.06-.64c0,.15,0,.47,0-.09s.13,0,0,0c0,0,.18-.44.05-.13,0,.07-.3.42-.13.13s-.23,0,.06,0,0,0-.08,0a4.92,4.92,0,0,1,.94,0s.51,0,.27,0,.39.07.44.08q.6.11,1.2.24a30.46,30.46,0,0,0,3.27.52,89.58,89.58,0,0,1,16,2.79c3.73,1,5.32-4.75,1.6-5.79a84.43,84.43,0,0,0-9.18-2c-1.51-.24-3-.45-4.53-.62q-1-.12-2.1-.21l-1.18-.09c.15,0-1.15-.11-.61,0-2.42-.34-4.76-1.17-7.22-.72-2.92.52-4.44,2.93-4.78,5.69a33.3,33.3,0,0,0,.16,6.07c.14,2.51.37,5.34,2.83,6.72,1.32.73,2.72.44,4.15.48l4.91.16,9.31.29c3.15.1,7.58.9,9.63-2.2,1-1.52.92-3.28.91-5l0-5.36c0-3.86-6-3.87-6,0Z"/><path class="cls-10" d="M426,286.77c-4.36-4.14-11.57,1.45-17,0-2.67-.71-9-5.62-9-2.77s.85,9,3,13,5,5.42,9,6c3.69.54,7.75-1,11-3.23,3-2,7-5.77,7-15"/><path class="cls-1" d="M427.12,280.5l3,.83a2.5,2.5,0,1,0,1.33-4.82l-3-.83a2.5,2.5,0,1,0-1.33,4.82Z"/><path class="cls-1" d="M398.45,292a10.87,10.87,0,0,1,2.3-.62h-.08l.17,0,.26,0,.6,0a10,10,0,0,1,1.22.05,1.13,1.13,0,0,0,1.12-1.13,1.15,1.15,0,0,0-1.12-1.12,11,11,0,0,0-5.07.72,1.24,1.24,0,0,0-.67.52,1.12,1.12,0,0,0-.11.86,1.14,1.14,0,0,0,1.38.79Z"/><path class="cls-7" d="M414.46,282.69a22.26,22.26,0,0,0-.11,7.85"/><path class="cls-8" d="M411.57,281.89a26.73,26.73,0,0,0-.51,4.72,27.67,27.67,0,0,0,.39,4.72,3,3,0,0,0,1.38,1.8,3,3,0,0,0,4.11-1.08l.3-.72a3.06,3.06,0,0,0,0-1.59l-.09-.6.11.8a23.12,23.12,0,0,1,0-6.05l-.1.79c0-.4.12-.8.2-1.19a3.23,3.23,0,0,0-.31-2.32,3,3,0,0,0-4.1-1.07,2.92,2.92,0,0,0-1.38,1.79Z"/><path class="cls-9" d="M441.39,271.63c-11.74-11.52-31.31-13.74-45.24-4.87a4.5,4.5,0,0,0,4.54,7.77c.8-.5,1.61-1,2.45-1.41l.95-.47.64-.29c-.54.22-.57.24-.1.05a33.63,33.63,0,0,1,4.7-1.46c.46-.1.92-.2,1.38-.28l.7-.12c.51-.08.46-.07-.15,0a7.51,7.51,0,0,1,2.46-.21,33.82,33.82,0,0,1,5.13.12c.25,0,1.57.22.38,0,.46.08.93.15,1.39.24.81.15,1.62.33,2.42.54s1.58.46,2.36.73c.45.15.88.32,1.32.49.86.31-.68-.33.39.16a31.24,31.24,0,0,1,4.46,2.47c.39.26.77.54,1.15.81.77.54-.57-.51.21.16s1.42,1.23,2.1,1.89a4.5,4.5,0,0,0,6.36-6.36Z"/></g></svg>