<svg id="body_fore" xmlns="http://www.w3.org/2000/svg" viewBox="0 0 720 1240"><defs><style>.cls-1{fill:#8c6239;}</style></defs><g id="hair_back_" data-name="hair(back)"><path class="cls-1" d="M433,732c14.43-4.62,34.75-6.1,42-11,10.94-7.4,12.11,4.6,20-3,3.82-3.68,22,21,15.7-36.21L499,361c1.19-97.85,5.8-251.69-105.53-272.83-12.75-2.42-27.08-3.6-37.64,4L356,92c-23.1-8.59-52.9-3.77-73.69,9.47-72.09,45.88-74,191.62-62.59,272.59a18.19,18.19,0,0,1,.14,3.9L198,693.85c-.58,8.36,18.12,13.36,26,16.15l32.86,19.13a19.26,19.26,0,0,0,13.46-.41C289,721.37,319.89,744.79,330,743,379.94,734.16,388.11,746.38,433,732Z"/><path d="M433.1,732.36c11.13-3.48,22.8-4.61,34-7.75a40.18,40.18,0,0,0,5.41-1.86c2.22-1,4.12-2.6,6.43-3.39,3.79-1.29,6.08.72,9.55,1.48a5.85,5.85,0,0,0,2.82,0c1.68-.46,2.54-2,4-2.59a3,3,0,0,1,2.36.1c2.18.69,4.16,2,6.48,2.22,9.35,1.05,8.33-15.87,8.21-21.13-.16-7.52-1.19-15-1.46-22.46l-1.84-50.53L506,542.26l-3.29-90-2.52-69.13c-.46-12.74-.76-25.3-.61-38,.43-36.18.41-72.49-3.79-108.47-3.94-33.85-11.34-68.93-29.51-98.25a112.56,112.56,0,0,0-31.17-33.51c-14.29-9.9-31-15.77-48.18-18.1-10.7-1.45-22.08-1.23-31.28,5.09l.38.65.17-.13a.38.38,0,0,0-.09-.68c-23.37-8.48-51.22-4.21-72.29,8.46-14.92,9-26.76,22.33-35.75,37.1-21.05,34.58-28.77,76.52-32.13,116.32a550.8,550.8,0,0,0,3.2,119c.62,4.6.11,9.06-.21,13.67l-1.73,24.95L211.5,493.3l-6.73,97.07-5.39,77.86-1.46,21.08c-.1,1.39-.24,2.79-.29,4.19-.16,4.68,3.85,7.55,7.58,9.61a79.91,79.91,0,0,0,13.17,5.4,35.34,35.34,0,0,1,6.84,2.64l17.53,10.2c4.53,2.63,9.08,5.94,13.87,8.07,5,2.22,10.21.73,15.08-.79s10-1.07,14.88,0c10.22,2.16,19.66,6.92,29.21,11a53.15,53.15,0,0,0,10.44,3.63c4.39.84,9-.72,13.32-1.33a229.5,229.5,0,0,1,34.25-2.05c8.87.1,17.75.41,26.59-.39a153.94,153.94,0,0,0,32.71-7.06c.46-.14.26-.87-.2-.72-11.07,3.51-22.39,6.25-34,7.16-8.85.69-17.72.31-26.58.25a225.28,225.28,0,0,0-32.42,2c-5,.68-10,2.36-15,1.07a82,82,0,0,1-11.85-4.54c-9-3.94-18.11-8.29-27.86-10a31.48,31.48,0,0,0-11.77-.16c-5.63,1.15-11,3.94-16.74,1.22-5.17-2.44-10.07-5.86-15-8.73-5.52-3.21-11-6.59-16.59-9.65a37.84,37.84,0,0,0-6.22-2.34,74.88,74.88,0,0,1-14-5.81c-3.54-2.05-6.78-4.75-6.52-9.09.29-4.76.66-9.51,1-14.26l4.75-68.53,6.5-93.84,6.07-87.58,3.36-48.58c.08-1.07.19-2.15.2-3.23.06-4.41-1-9-1.53-13.34s-1-8.8-1.39-13.21a575.21,575.21,0,0,1-2.43-59c.42-41.5,4.77-84.25,19.28-123.4,6.53-17.63,15.41-34.73,28-48.82A91.89,91.89,0,0,1,317.87,89a86.91,86.91,0,0,1,19.54-.63,74.51,74.51,0,0,1,9.42,1.38c1.47.32,2.92.68,4.37,1.09,1.05.3,3.55,1.63,4.44,1-.38.28,0,.92.38.65,11-7.54,24.93-6.28,37.35-3.92a113.08,113.08,0,0,1,24.92,7.69,103.46,103.46,0,0,1,37.38,28.58c21.59,26,31.33,60.12,36.73,92.91,5.88,35.76,6.74,72.19,6.59,108.36-.07,16-.47,32,.11,48l2.2,60.2,3.15,86.46,3.15,86.36,2.22,60.9c.16,4.29.26,8.58.47,12.86.23,4.7.9,9.37,1.15,14.07.36,6.7,1.13,15.12-1.81,21.43-3,6.54-8.09,1.6-12.82.94a3,3,0,0,0-1.91.3c-1.78.81-2.51,2.43-4.64,2.63a9.1,9.1,0,0,1-4.22-1.11,10.06,10.06,0,0,0-8.08-.18c-1.85.76-3.42,2-5.22,2.89a39.82,39.82,0,0,1-7.05,2.39c-10.85,2.84-22.06,4.06-32.79,7.42C432.44,731.78,432.64,732.51,433.1,732.36Z"/></g></svg>