<svg id="body_fore" xmlns="http://www.w3.org/2000/svg" viewBox="0 0 720 1240"><defs><style>.cls-1{fill:#8c6239;stroke:#000;stroke-miterlimit:10;stroke-width:0.25px;}</style></defs><g id="headWear"><path class="cls-1" d="M499.43,384.56c4-92,29.15-253.49-105.52-272.83-12.75-2.47-27.08-3.6-37.65,4l.17-.13C333.33,107,305,114.39,282.75,125c-94.33,44.54-81.32,181.53-63.32,263.53l29-60c-.47-1.29.69,19,11,31s29.78,15.69,40,24.11c-17.35-25.56-28.35-53.48-32-83.11a103.35,103.35,0,0,0-2-15c-2.45-11.23,2.09-22.66,4-34L273,211.29l1.39,40.27h24c9.84,1.31,2.15,1.15,12,0,15.27-1.77,13.74,3.78,29,2,2.7-12.81,21.37-38.92,22-52v15c3.21,11.2,5,22.28,8.19,33.47.6,3.48,3.08,5.81,6.66,5.73,11.08,1.14,22.17,2.33,33.26,3.42,3.89.38,13.89-2.86,13.89-5.62,0-8,3.74-35.3,7-52l3,26c15.5,18.06,26.65,64.56,21,66-.23,28.46-1.71,76.2-29.17,83.7,3.58,1.14,20,5.92,37.17-2.7a49.2,49.2,0,0,0,20.73-20"/></g></svg>