<svg id="body_back_拷貝" data-name="body_back 拷貝" xmlns="http://www.w3.org/2000/svg" viewBox="0 0 720 1240"><g id="headWear_拷貝_4" data-name="headWear 拷貝 4"><path d="M304.61,396c24.22,20.74,59.52,19.63,89.43,10.18,10.75-3.4,21.61-7.78,32.81-6.94s21.32,6.75,30.75,13.06a323.22,323.22,0,0,1,94.23,97.92c1,1.59,2,3.3,2,5.2a10.09,10.09,0,0,1-1.93,5.12c-13.8,22.45-47.13,55.18-68.55,69.56-13-16-9-16-19-33,13,39,19,51.81,27,87,9.57,41.85,9.93,97,12,140-83.34,9.64-196.43,1.93-279-13.37,6.91-38.66,21.86-93.31,22-132.65.1-25.24,5.84-49.14,10-74a180.91,180.91,0,0,0-11.41,29.11c-17-2.5-31.15-15.07-41.75-29.23s-18.65-30.33-29.49-44.29c22.55-32,43.57-70.57,71.68-97.26Z" fill="#8c3832" stroke="#231815" stroke-miterlimit="10" stroke-width="0.25"/></g></svg>